<svg xmlns="http://www.w3.org/2000/svg" x="0px" y="0px"
width="32" height="32"
viewBox="0 0 172 172"
style=" fill:#000000;"><g fill="none" fill-rule="nonzero" stroke="none" stroke-width="1" stroke-linecap="butt" stroke-linejoin="miter" stroke-miterlimit="10" stroke-dasharray="" stroke-dashoffset="0" font-family="none" font-weight="none" font-size="none" text-anchor="none" style="mix-blend-mode: normal"><path d="M0,172v-172h172v172z" fill="none"></path><g fill="#ffffff"><path d="M37.625,16.125l22.92773,55.68164c-13.73811,8.5438 -22.92773,23.73635 -22.92773,41.06836c0,26.67075 21.69888,48.375 48.375,48.375c26.67613,0 48.375,-21.70425 48.375,-48.375c0,-17.332 -9.18962,-32.52456 -22.92773,-41.06836l22.92773,-55.68164h-11.62134l-21.02759,51.052c-3.53245,-1.21929 -7.22878,-2.06703 -11.07544,-2.43555l20.00928,-48.61646h-11.62134l-20.16675,48.96289c-2.96307,0.44037 -5.83433,1.13521 -8.5979,2.08911l-21.02759,-51.052zM61.34009,16.125l13.65796,33.18433l5.81592,-14.11987l-7.85254,-19.06445zM86,75.25c20.74213,0 37.625,16.8775 37.625,37.625c0,20.7475 -16.88287,37.625 -37.625,37.625c-20.74213,0 -37.625,-16.8775 -37.625,-37.625c0,-20.7475 16.88287,-37.625 37.625,-37.625zM86,92.24634l-6.27783,14.07788l-15.22217,1.66919l11.39038,10.2356l-3.2019,15.10669l13.31152,-7.68457l13.31152,7.68457l-3.2019,-15.10669l11.39038,-10.2356l-15.22217,-1.66919z"></path></g></g></svg>