<svg xmlns="http://www.w3.org/2000/svg" x="0px" y="0px"
width="32" height="32"
viewBox="0 0 172 172"
style=" fill:#000000;"><g fill="none" fill-rule="nonzero" stroke="none" stroke-width="1" stroke-linecap="butt" stroke-linejoin="miter" stroke-miterlimit="10" stroke-dasharray="" stroke-dashoffset="0" font-family="none" font-weight="none" font-size="none" text-anchor="none" style="mix-blend-mode: normal"><path d="M0,172v-172h172v172z" fill="none"></path><g fill="#ffffff"><path d="M48.375,21.5v5.375h-21.5v118.25h118.25v-118.25h-21.5v-5.375h-10.75v5.375h-53.75v-5.375zM37.625,37.625h10.75v5.375h10.75v-5.375h53.75v5.375h10.75v-5.375h10.75v10.75h-96.75zM37.625,59.125h96.75v75.25h-96.75zM69.875,69.875v10.75h10.75v-10.75zM91.375,69.875v10.75h10.75v-10.75zM112.875,69.875v10.75h10.75v-10.75zM48.375,91.375v10.75h10.75v-10.75zM69.875,91.375v10.75h10.75v-10.75zM91.375,91.375v10.75h10.75v-10.75zM112.875,91.375v10.75h10.75v-10.75zM48.375,112.875v10.75h75.25v-10.75z"></path></g></g></svg>