<svg xmlns="http://www.w3.org/2000/svg" x="0px" y="0px"
width="32" height="32"
viewBox="0 0 172 172"
style=" fill:#000000;"><g fill="none" fill-rule="nonzero" stroke="none" stroke-width="1" stroke-linecap="butt" stroke-linejoin="miter" stroke-miterlimit="10" stroke-dasharray="" stroke-dashoffset="0" font-family="none" font-weight="none" font-size="none" text-anchor="none" style="mix-blend-mode: normal"><path d="M0,172v-172h172v172z" fill="none"></path><g fill="#ffffff"><path d="M53.75,21.5v43h24.12451l8.12549,11.22241l8.12549,-11.22241h24.12451v-43h-5.375zM64.5,32.25h43v21.5h-18.87549l-2.62451,3.62183l-2.62451,-3.62183h-18.87549zM59.125,80.625c-6.71875,0 -12.44191,2.71306 -16.1145,6.84473c-3.67259,4.13166 -5.3855,9.42958 -5.3855,14.65527c0,5.22569 1.71291,10.52361 5.3855,14.65527c1.36296,1.53334 3.26027,2.6192 5.13354,3.69531c-12.32417,4.54204 -21.26904,16.16794 -21.26904,30.02442h10.75c0,-11.93452 9.56549,-21.5 21.5,-21.5c11.93452,0 21.5,9.56548 21.5,21.5h10.75c0,-11.93452 9.56548,-21.5 21.5,-21.5c11.93452,0 21.5,9.56548 21.5,21.5h10.75c0,-13.85648 -8.94487,-25.48237 -21.26904,-30.02442c1.87328,-1.07611 3.77058,-2.16198 5.13354,-3.69531c3.67259,-4.13166 5.3855,-9.42958 5.3855,-14.65527c0,-5.22569 -1.71291,-10.52361 -5.3855,-14.65527c-3.67259,-4.13167 -9.39575,-6.84473 -16.1145,-6.84473c-6.71875,0 -12.44191,2.71306 -16.1145,6.84473c-3.67259,4.13166 -5.3855,9.42958 -5.3855,14.65527c0,5.22569 1.71291,10.52361 5.3855,14.65527c1.36296,1.53334 3.26027,2.6192 5.13354,3.69531c-6.76309,2.49253 -12.11385,7.27506 -15.89404,13.30103c-3.78019,-6.02597 -9.13095,-10.80851 -15.89404,-13.30103c1.87328,-1.07611 3.77058,-2.16198 5.13354,-3.69531c3.67259,-4.13166 5.3855,-9.42958 5.3855,-14.65527c0,-5.22569 -1.71291,-10.52361 -5.3855,-14.65527c-3.67259,-4.13167 -9.39575,-6.84473 -16.1145,-6.84473zM59.125,91.375c4.03124,0 6.37059,1.31819 8.073,3.2334c1.70241,1.91521 2.677,4.6798 2.677,7.5166c0,2.83681 -0.97459,5.60139 -2.677,7.5166c-1.70241,1.91521 -4.04175,3.2334 -8.073,3.2334c-4.03124,0 -6.37059,-1.31819 -8.073,-3.2334c-1.70241,-1.91521 -2.677,-4.6798 -2.677,-7.5166c0,-2.83681 0.97459,-5.60139 2.677,-7.5166c1.70241,-1.91521 4.04175,-3.2334 8.073,-3.2334zM112.875,91.375c4.03124,0 6.37059,1.31819 8.073,3.2334c1.70241,1.91521 2.677,4.6798 2.677,7.5166c0,2.83681 -0.97459,5.60139 -2.677,7.5166c-1.70241,1.91521 -4.04175,3.2334 -8.073,3.2334c-4.03124,0 -6.37059,-1.31819 -8.073,-3.2334c-1.70241,-1.91521 -2.677,-4.6798 -2.677,-7.5166c0,-2.83681 0.97459,-5.60139 2.677,-7.5166c1.70241,-1.91521 4.04175,-3.2334 8.073,-3.2334z"></path></g></g></svg>