<svg xmlns="http://www.w3.org/2000/svg" x="0px" y="0px"
width="32" height="32"
viewBox="0 0 172 172"
style=" fill:#000000;"><g fill="none" fill-rule="nonzero" stroke="none" stroke-width="1" stroke-linecap="butt" stroke-linejoin="miter" stroke-miterlimit="10" stroke-dasharray="" stroke-dashoffset="0" font-family="none" font-weight="none" font-size="none" text-anchor="none" style="mix-blend-mode: normal"><path d="M0,172v-172h172v172z" fill="none"></path><g fill="#e67e22"><path d="M82.93457,16.146c-2.67099,0.09334 -5.37312,0.3322 -8.094,0.73486l-0.04199,0.0105h-0.04199c-28.60915,4.67088 -51.76682,27.27124 -57.60278,55.79712c-1.74278,8.14677 -1.7283,15.84535 -0.58789,23.32666c1.64277,12.74153 18.10365,18.28259 27.3894,8.99683c6.62047,-6.62047 16.41224,-6.62047 23.03272,0c6.62047,6.62047 6.62047,16.41225 0,23.03272c-9.28576,9.28576 -3.74471,25.74663 8.99683,27.3894c7.46448,1.13784 15.14774,1.14317 23.27417,-0.58789c9.15115,-1.69444 17.66775,-5.30026 25.18482,-10.31958c2.06745,6.52613 8.13617,11.34839 15.30615,11.34839c8.84171,0 16.125,-7.28329 16.125,-16.125v-66.80957c3.30179,-3.76109 5.375,-8.55916 5.375,-13.81543c0,-7.35927 -4.28415,-12.1528 -7.68457,-16.34546c-3.40042,-4.19266 -6.67471,-8.45637 -8.56641,-17.05933l-2.03662,-9.26977l-6.89722,6.51929c-2.90764,2.74359 -5.24919,5.42271 -7.31714,8.0625c-10.62456,-8.29632 -23.69268,-13.64539 -37.89795,-14.72876c-2.6047,-0.19865 -5.24454,-0.25081 -7.91553,-0.15747zM83.36499,26.8855c15.03655,-0.53439 28.76437,4.56427 39.52514,13.26953c-3.53315,7.06024 -4.64014,13.51634 -4.64014,18.96997c0,5.32376 2.06326,10.2931 5.375,14.15136v1.97364v6.82373c-1.63338,-0.94648 -3.48721,-1.44614 -5.375,-1.44873c-5.93706,0 -10.75,4.81294 -10.75,10.75c0,5.93706 4.81294,10.75 10.75,10.75c1.88779,-0.00258 3.74162,-0.50225 5.375,-1.44873v30.94824c-7.54952,6.32763 -16.54476,10.86198 -26.39209,12.67114l-0.08398,0.02099l-0.07349,0.0105c-6.85842,1.46967 -13.10264,1.47604 -19.55786,0.48291l-0.07349,-0.0105l-0.07349,-0.0105c-4.41526,-0.55191 -6.38146,-5.54432 -2.78198,-9.1438c10.57953,-10.57953 10.57953,-27.65435 0,-38.23389c-10.57953,-10.57953 -27.65436,-10.57953 -38.23389,0c-3.59948,3.59978 -8.59189,1.63327 -9.1438,-2.78198l-0.0105,-0.07349l-0.0105,-0.07349c-0.99311,-6.45522 -0.98675,-12.69944 0.48291,-19.55786v-0.02099l0.0105,-0.03149c4.92291,-24.1222 24.73401,-43.41699 48.77392,-47.35669c2.32553,-0.34255 4.63356,-0.54906 6.90772,-0.62988zM138.1333,37.74048c2.29438,4.91413 4.82018,9.01636 7.08618,11.8103c3.60723,4.44765 5.28052,6.18349 5.28052,9.57422c0,5.19919 -5.0325,10.50771 -10.97046,10.75c-5.5465,0.22632 -10.52954,-5.07524 -10.52954,-10.75c0,-6.03612 2.5689,-13.03268 9.1333,-21.38452zM75.09253,37.78247c-5.93706,0 -10.75,4.81294 -10.75,10.75c0,5.93706 4.81294,10.75 10.75,10.75c5.93706,0 10.75,-4.81294 10.75,-10.75c0,-5.93706 -4.81294,-10.75 -10.75,-10.75zM107.5,48.375c-5.93706,0 -10.75,4.81294 -10.75,10.75c0,5.93706 4.81294,10.75 10.75,10.75c5.93706,0 10.75,-4.81294 10.75,-10.75c0,-5.93706 -4.81294,-10.75 -10.75,-10.75zM48.21753,59.28247c-5.93706,0 -10.75,4.81294 -10.75,10.75c0,5.93706 4.81294,10.75 10.75,10.75c5.93706,0 10.75,-4.81294 10.75,-10.75c0,-5.93706 -4.81294,-10.75 -10.75,-10.75zM134.375,80.625h10.75v10.75h-10.75zM134.375,102.125h10.75v37.625c0,3.03704 -2.33796,5.375 -5.375,5.375c-3.03704,0 -5.375,-2.33796 -5.375,-5.375zM101.96753,113.03247c-5.93706,0 -10.75,4.81294 -10.75,10.75c0,5.93706 4.81294,10.75 10.75,10.75c5.93706,0 10.75,-4.81294 10.75,-10.75c0,-5.93706 -4.81294,-10.75 -10.75,-10.75z"></path></g></g></svg>