<svg xmlns="http://www.w3.org/2000/svg" x="0px" y="0px"
width="32" height="32"
viewBox="0 0 172 172"
style=" fill:#000000;"><g fill="none" fill-rule="nonzero" stroke="none" stroke-width="1" stroke-linecap="butt" stroke-linejoin="miter" stroke-miterlimit="10" stroke-dasharray="" stroke-dashoffset="0" font-family="none" font-weight="none" font-size="none" text-anchor="none" style="mix-blend-mode: normal"><path d="M0,172v-172h172v172z" fill="none"></path><g fill="#000000"><path d="M136.7185,35.31733c-13.51633,-13.5235 -31.49033,-20.97683 -50.63967,-20.984c-39.45967,0 -71.5735,32.0995 -71.58783,71.55917c-0.00717,12.61333 3.2895,24.92567 9.55317,35.776l-9.71083,35.99817l37.50317,-8.86517c10.45617,5.70467 22.22383,8.7075 34.2065,8.71467h0.02867c39.4525,0 71.56633,-32.10667 71.58783,-71.55917c0.01433,-19.12783 -7.42467,-37.109 -20.941,-50.63967zM121.10233,111.47033c-1.49067,4.17817 -8.7935,8.20583 -12.07583,8.49967c-3.28233,0.301 -6.35683,1.4835 -21.46417,-4.472c-18.18183,-7.16667 -29.66283,-25.80717 -30.5515,-26.99683c-0.89583,-1.19683 -7.30283,-9.6965 -7.30283,-18.49717c0,-8.80067 4.6225,-13.12933 6.26367,-14.91383c1.64117,-1.79167 3.57617,-2.236 4.773,-2.236c1.18967,0 2.3865,0 3.42567,0.043c1.27567,0.05017 2.6875,0.11467 4.02767,3.08883c1.591,3.54033 5.06683,12.384 5.51117,13.27983c0.44433,0.89583 0.74533,1.94217 0.1505,3.13183c-0.59483,1.18967 -0.89583,1.935 -1.7845,2.98133c-0.89583,1.04633 -1.87767,2.32917 -2.68033,3.13183c-0.89583,0.88867 -1.8275,1.86333 -0.78833,3.64783c1.04633,1.79167 4.62967,7.64683 9.94733,12.384c6.837,6.09167 12.59183,7.9765 14.3835,8.8795c1.79167,0.89583 2.83083,0.74533 3.87717,-0.4515c1.04633,-1.18967 4.472,-5.21733 5.66167,-7.009c1.18967,-1.79167 2.3865,-1.49067 4.02767,-0.89583c1.64117,0.59483 10.43467,4.9235 12.21917,5.81933c1.79167,0.89583 2.98133,1.34017 3.42567,2.0855c0.44433,0.73817 0.44433,4.3215 -1.04633,8.49967z"></path></g></g></svg>