<svg xmlns="http://www.w3.org/2000/svg" x="0px" y="0px"
    width="48" height="48"
    viewBox="0 0 172 172"
    style=" fill:#000000;">
    <g fill="none" fill-rule="nonzero" stroke="none" stroke-width="1" stroke-linecap="butt" stroke-linejoin="miter" stroke-miterlimit="10" stroke-dasharray="" stroke-dashoffset="0" font-family="none" font-weight="none" font-size="none" text-anchor="none" style="mix-blend-mode: normal"><path d="M0,172v-172h172v172z" fill="none"></path><g><path d="M82.71767,40.40925c-5.85158,-8.77558 -7.1165,-20.50383 -7.39242,-25.32342c-14.86367,3.21425 -29.63058,8.97983 -28.77775,13.22608c0.1075,0.53392 0.78117,1.17533 1.89917,1.79883l-1.74867,3.12825c-2.13567,-1.19683 -3.33608,-2.57642 -3.66217,-4.22475c-0.96392,-4.80525 4.47917,-9.15183 16.63383,-13.29058c8.299,-2.82725 16.66967,-4.515 17.02442,-4.58308l2.13925,-0.43v2.18942c0,0.1505 0.09317,15.36533 6.86567,25.52408z" fill="#cfd8dc"></path><path d="M88.69108,154.08333h-0.89942c-29.35467,0 -62.02392,-9.21992 -65.88317,-24.64975c-2.35425,-9.42417 5.34633,-19.83733 22.26683,-30.10358l1.86333,3.06017c-15.22558,9.24142 -22.56067,18.533 -20.65075,26.17625c3.35042,13.3945 34.31042,21.74367 61.46492,21.93c3.22858,-4.82675 20.5755,-33.18167 10.67475,-71.21158l3.46508,-0.903c11.28392,43.32967 -11.53117,74.66592 -11.7605,74.97767z" fill="#cfd8dc"></path><path d="M35.58608,140.8465c-1.93142,0 -2.88817,-0.21142 -3.04583,-0.25083c-0.63067,-0.15408 -1.12517,-0.63783 -1.29717,-1.26133c-0.17558,-0.6235 0.00358,-1.29358 0.46225,-1.74867c0.258,-0.258 25.78925,-25.82867 29.23642,-46.5045l3.53317,0.58767c-2.96342,17.78767 -20.47875,38.06575 -27.434,45.53342c6.94808,-0.39775 24.49208,-3.65142 58.17183,-22.50333c-26.28375,-2.881 -30.44042,-23.92233 -30.48342,-24.14808l3.52242,-0.64858c0.16842,0.8815 4.39317,21.53942 33.12433,21.53942c0.01075,0 0.01792,0 0.02867,0v0c0.81342,0 1.51933,0.54467 1.72717,1.32583c0.215,0.78117 -0.129,1.60892 -0.82775,2.01742c-40.25875,23.32392 -59.78075,26.058 -66.71808,26.06158z" fill="#cfd8dc"></path><path d="M52.04433,149.425c-0.74175,0 -1.41542,-0.45867 -1.677,-1.16458c-0.28308,-0.75608 -0.02508,-1.6125 0.63425,-2.0855c0.12183,-0.08958 6.49658,-4.7945 13.27983,-15.15033c-2.60867,-1.15383 -5.24958,-2.50117 -7.869,-4.07425c-3.182,-1.90992 -5.58642,-3.95958 -7.38167,-6.05942c-9.20917,2.4295 -17.70883,3.38983 -25.17292,2.75558l0.301,-3.569c6.72233,0.56975 14.36558,-0.22575 22.65025,-2.29333c-5.63658,-9.632 -0.46225,-19.19233 -0.39058,-19.32133l3.13183,1.74508c-0.24008,0.43717 -4.53292,8.4925 0.89225,16.60158c7.88692,-2.26467 16.30058,-5.61508 25.00808,-9.96883c2.00308,-6.57542 3.569,-14.05383 4.38958,-22.489c0.05733,-0.57692 0.387,-1.08933 0.88867,-1.37958c0.50167,-0.29025 1.11442,-0.31533 1.64117,-0.07525c0.11467,0.05375 11.696,5.34275 20.081,8.7935c0.60917,0.25083 1.032,0.817 1.10008,1.47275c0.07167,0.65575 -0.22575,1.29358 -0.774,1.66625c-8.20225,5.59 -16.35075,10.43825 -24.28783,14.48383c-2.5155,7.97292 -5.62942,14.60925 -8.81142,20.03442c13.2655,4.95575 24.77875,5.031 24.92567,5.031c0.817,0 1.53008,0.55183 1.73433,1.34375c0.20425,0.79192 -0.1505,1.61967 -0.86358,2.01742c-16.26833,9.03717 -42.16508,11.58133 -43.258,11.68525c-0.05733,-0.00358 -0.11467,0 -0.172,0zM67.75725,132.46508c-3.72667,5.7835 -7.38883,9.93658 -10.1265,12.64917c7.1595,-1.0535 19.71192,-3.36117 30.12867,-7.66475c-4.988,-0.61275 -12.20842,-1.97442 -20.00217,-4.98442zM52.91508,119.79442c1.40825,1.40467 3.16408,2.77708 5.33917,4.085c2.63733,1.58383 5.31408,2.92758 7.955,4.06708c2.70183,-4.52933 5.37858,-9.96525 7.6755,-16.36867c-7.24192,3.44717 -14.27242,6.19917 -20.96967,8.21658zM83.1405,87.17892c-0.73458,6.33533 -1.86692,12.11525 -3.27158,17.37917c5.94833,-3.17125 12.0185,-6.794 18.13883,-10.84317c-5.55058,-2.35067 -11.653,-5.08475 -14.86725,-6.536z" fill="#cfd8dc"></path><path d="M64.22767,37.98333c-0.41925,0 -0.83492,-0.1505 -1.16458,-0.43c-5.76917,-4.93783 -12.55958,-14.9855 -12.84625,-15.41192c-0.46225,-0.68442 -0.39058,-1.59817 0.16483,-2.20733c0.55183,-0.61275 1.462,-0.75608 2.17867,-0.3655c0.03942,0.01075 3.36117,1.37958 25.86092,5.12775c0.64858,0.1075 1.1825,0.559 1.3975,1.17533c0.21858,0.61633 0.07883,1.30433 -0.35833,1.79167c-6.2995,6.99825 -14.25808,10.07992 -14.59492,10.20533c-0.20783,0.07525 -0.42642,0.11467 -0.63783,0.11467zM56.06842,24.17317c2.26108,3.04225 5.51833,7.15233 8.49967,9.92225c1.83108,-0.83492 5.93758,-2.93117 9.83267,-6.44283c-9.25575,-1.58025 -14.90308,-2.70542 -18.33233,-3.47942z" fill="#cfd8dc"></path><path d="M78.27075,87.43333c-0.24367,0 -0.49092,-0.05017 -0.72025,-0.1505c-0.71308,-0.31533 -1.14308,-1.0535 -1.06067,-1.8275c1.04633,-9.85058 -14.06817,-13.803 -14.22225,-13.83883c-0.6235,-0.15767 -1.118,-0.64142 -1.28642,-1.26133c-0.16842,-0.61992 0.00717,-1.28642 0.46225,-1.7415c0.74175,-0.74175 18.41475,-18.26783 40.58842,-27.89267c0.61992,-0.26875 1.32225,-0.16842 1.84542,0.25083c0.51958,0.42283 0.75967,1.10008 0.6235,1.75225c-4.24983,20.58267 -24.04417,43.15767 -24.88267,44.10725c-0.35475,0.39058 -0.84925,0.602 -1.34733,0.602zM66.13042,69.10458c4.24267,1.59458 11.6745,5.28542 13.55575,12.02567c5.19225,-6.47867 16.2755,-21.40325 20.41425,-35.59683c-15.72008,7.56083 -28.95692,18.963 -33.97,23.57117z" fill="#b71c1c"></path><path d="M46.86642,101.62333l-1.70208,-3.15333c6.74742,-3.63708 14.47667,-10.33075 20.80842,-18.11017c-5.38933,3.69083 -8.47458,6.21708 -8.57133,6.2995l-2.28975,-2.75917c0.13975,-0.11467 6.321,-5.18508 16.59442,-11.53833c2.82008,-4.5365 4.988,-9.202 6.10242,-13.674c0.18992,-0.75967 0.35475,-1.49425 0.48733,-2.20375c-6.89792,-2.46175 -13.26192,-3.92017 -17.63358,-4.54725c-0.66292,-0.09317 -1.21475,-0.54825 -1.43692,-1.17533c-0.22217,-0.62708 -0.07525,-1.32942 0.37267,-1.81675c0.30458,-0.32967 7.58233,-8.127 16.67683,-12.40908c0.70592,-0.33325 1.55158,-0.16842 2.08192,0.4085c0.24008,0.26158 5.16,5.78708 3.90942,17.21792c4.13875,1.6125 8.40292,3.57258 12.50942,5.90533c9.88642,-4.44333 21.113,-8.44233 33.07058,-10.8575c0.61633,-0.12183 1.30075,0.10033 1.72358,0.602c0.41925,0.50167 0.53392,1.19325 0.29742,1.80242c-4.65833,11.93967 -17.14983,24.69275 -17.68017,25.23025c-0.36192,0.3655 -0.85642,0.54825 -1.37242,0.53033c-0.51242,-0.02867 -0.98542,-0.27233 -1.30792,-0.67367c-4.01333,-5.04533 -9.25933,-9.2235 -14.91742,-12.62408c-7.79375,3.59767 -14.69525,7.44617 -20.36767,10.92558c-7.23833,11.29825 -18.16392,21.672 -27.35517,26.62058zM98.513,62.33567c4.6225,2.98133 8.92608,6.48583 12.48433,10.56367c2.967,-3.21783 10.08708,-11.352 14.1255,-19.42883c-9.49583,2.18583 -18.48283,5.34992 -26.60983,8.86517zM81.69642,57.7705c-0.11825,0.58408 -0.25442,1.1825 -0.40492,1.79167c-0.7525,3.00642 -1.94933,6.09525 -3.483,9.17692c3.92733,-2.24317 8.27392,-4.558 12.9645,-6.80117c-3.00283,-1.591 -6.06658,-2.97417 -9.07658,-4.16742zM64.672,48.99133c3.98108,0.78117 8.88667,2.05683 14.12192,3.8915c0.54467,-6.60408 -1.23983,-10.64967 -2.31842,-12.44133c-4.93067,2.57283 -9.24858,6.192 -11.8035,8.54983z" fill="#b71c1c"></path><path d="M64.67917,66.29167c0,15.695 -13.07917,28.165 -22.50333,37.26667c-1.57667,1.54083 -6.91583,1.79167 -6.91583,1.79167c1.32583,-1.36167 2.83083,-2.795 4.44333,-4.33583c8.95833,-8.67167 21.3925,-20.5325 21.3925,-34.7225c0,-16.80583 -6.7725,-23.435 -12.11167,-28.73833c-2.365,-2.40083 -4.37167,-4.69417 -5.59,-7.48917l1.11083,-0.46583c1.21833,0.5375 2.61583,1.14667 3.69083,1.6125c0.86,1.25417 2.00667,2.4725 3.3325,3.79833c5.4825,5.4825 13.15083,13.0075 13.15083,31.2825z" fill="#b71c1c"></path><path d="M153.85042,70.9285c0,0 -2.16792,0.30817 -2.77708,0.37983c-31.39,3.47583 -63.78333,12.50583 -82.30917,19.92333c-6.70083,2.6875 -13.6525,5.94833 -19.995,9.60333c-0.03583,0.03583 -0.07167,0.03583 -0.14333,0.07167c-3.72667,2.15 -12.7925,6.59333 -20.13833,10.49917c10.75,-11.43083 30.88833,-20.24583 38.915,-23.47083c18.1675,-7.27417 49.37833,-16.05333 80.0875,-19.81583c-3.61917,-4.22833 -12.47,-13.18667 -29.885,-19.85167c-10.17667,-3.94167 -25.65667,-6.16333 -39.30917,-8.13417c-21.715,-3.1175 -34.0775,-5.19583 -35.26,-11.10833c-0.25083,-1.1825 -0.07167,-2.365 0.46583,-3.51167c1.1825,1.935 2.86667,3.29667 3.9775,4.085c0.5375,0.35833 0.93167,0.57333 1.075,0.645l0.03583,0.03583c5.08833,2.6875 18.8125,4.65833 30.24333,6.30667c13.83167,2.00667 29.49083,4.26417 40.06167,8.31333c24.6175,9.49583 33.11,23.07667 33.46833,23.65c0.3225,0.5375 1.48708,2.37933 1.48708,2.37933z" fill="#b71c1c"></path></g></g>
</svg>