<svg xmlns="http://www.w3.org/2000/svg" x="0px" y="0px"
width="48" height="48"
viewBox="0 0 172 172"
style=" fill:#000000;"><g fill="none" fill-rule="nonzero" stroke="none" stroke-width="1" stroke-linecap="butt" stroke-linejoin="miter" stroke-miterlimit="10" stroke-dasharray="" stroke-dashoffset="0" font-family="none" font-weight="none" font-size="none" text-anchor="none" style="mix-blend-mode: normal"><path d="M0,172v-172h172v172z" fill="none"></path><g><path d="M0.00717,125.56358h6.88v-25.38792l9.55675,21.70425c1.17892,2.70542 2.79142,3.66217 5.9555,3.66217c3.16408,0 4.71208,-0.95675 5.891,-3.66217l9.55675,-21.14883v24.8325h6.88v-26.00783c0,-2.49758 -0.99258,-3.70875 -3.04225,-4.33225c-4.89842,-1.54083 -8.18792,-0.21142 -9.675,3.12467l-9.80042,22.07333l-9.49225,-22.07333c-1.42617,-3.3325 -4.773,-4.6655 -9.675,-3.12467c-2.04967,0.6235 -3.04225,1.83108 -3.04225,4.32867v26.00783h0.00717z" fill="#00796b"></path><path d="M48.16358,104.92358h6.88v14.53042c-0.05375,0.71667 0.22933,2.61942 3.5475,2.66958c1.69133,0.02867 10.10858,0 10.2125,0v-17.2h6.88c0.02867,0 0,21.38533 0,21.47492c0.03583,5.27467 -6.55033,5.9555 -9.57825,6.04508h-17.93817v-3.44c0.03583,0 17.15342,0.00358 17.20358,0c3.89867,-0.41208 3.43642,-2.5585 3.43642,-3.21067v-0.22933h-10.793c-5.98417,-0.05375 -9.80042,-2.69108 -9.84342,-5.6975c-0.00717,-0.2795 0.129,-14.8135 -0.00717,-14.9425z" fill="#00796b"></path><path d="M79.12358,125.56358h17.22508c2.2575,0 4.4505,-0.473 6.192,-1.29c2.9025,-1.333 4.09933,-3.13542 4.09933,-5.504v-4.902c0,-5.289 -6.5575,-5.504 -10.32,-5.504h-6.88c-2.70542,0 -3.1175,-1.634 -3.44,-3.44v-3.44c0.3225,-1.376 0.9245,-3.225 3.30742,-3.44c2.76992,0 17.329,0 17.329,0v-3.44h-16.3615c-2.70542,0 -11.1585,0.3225 -11.1585,6.88v4.25342c0,3.01 2.6445,5.461 8.385,6.063c0.645,0.043 1.29,0.086 1.93142,0.086c0,0 6.6865,-0.129 6.88,-0.086c3.87,0 3.44,3.01 3.44,3.44v3.44c0,0.473 -0.1075,3.44 -3.47942,3.44c-0.258,0 -17.16058,0 -17.16058,0v3.44358z" fill="#f57f17"></path><path d="M144.48,118.53667c0,4.15308 2.34708,6.48225 8.57133,6.94808c0.5805,0.03942 1.16458,0.07525 1.74867,0.07525h17.2v-3.44h-15.89208c-3.55108,0 -4.74792,-1.49067 -4.74792,-3.62275v-23.89725h-6.88z" fill="#f57f17"></path><path d="M110.02267,118.68358v-17.2c0,-3.655 1.79167,-6.17767 6.86567,-6.88h2.408h12.35175h1.88125c5.074,0.70233 7.45333,3.22142 7.45333,6.88v17.1355c0,2.96342 -0.77042,4.55442 -3.28233,5.58642l5.332,4.7945h-7.74l-3.83417,-3.44h-4.50425l-7.654,0.043c-1.10725,0 -2.27542,-0.15408 -3.55825,-0.50525c-3.8485,-1.04992 -5.719,-3.07092 -5.719,-6.41417zM116.90267,118.68358c0.35117,1.67342 1.69492,3.44 4.085,3.44h6.67933l-3.827,-3.44h7.79375l1.85975,1.72717c0,0 0.6665,-0.54467 0.6665,-1.72717c0,-1.1825 -0.05733,-17.2 -0.05733,-17.2c-0.35117,-1.55517 -1.92783,-3.44 -4.257,-3.44h-8.85442c-2.68392,0 -4.085,1.96367 -4.085,3.79117l-0.00358,16.84883z" fill="#f57f17"></path><path d="M165.54642,90.97725c-3.69442,-0.10033 -6.5145,0.24367 -8.92608,1.25775c-0.68442,0.29025 -1.77733,0.29742 -1.892,1.15742c0.37625,0.39417 0.43358,0.98542 0.73458,1.46917c0.57333,0.93167 1.548,2.18225 2.41517,2.83442c0.94958,0.71667 1.92783,1.4835 2.94192,2.10342c1.806,1.10008 3.82342,1.73075 5.56492,2.83442c1.02483,0.64858 2.0425,1.47275 3.04583,2.20375c0.4945,0.3655 0.82417,0.92808 1.46917,1.15742c0,-0.03583 0,-0.06808 0,-0.10392c-0.33683,-0.43 -0.42642,-1.02125 -0.73458,-1.47275c-0.45508,-0.45508 -0.91017,-0.91017 -1.36525,-1.36525c-1.333,-1.77017 -3.0315,-3.32892 -4.83033,-4.61892c-1.43692,-1.032 -4.65117,-2.42592 -5.25317,-4.09575c-0.03583,-0.03583 -0.06808,-0.06808 -0.1075,-0.1075c1.01767,-0.11467 2.21092,-0.48375 3.14975,-0.73458c1.58025,-0.42283 2.9885,-0.31175 4.61892,-0.73458c0.73458,-0.21142 1.46917,-0.41925 2.20375,-0.63067c0,-0.13975 0,-0.2795 0,-0.41925c-0.82417,-0.84567 -1.41542,-1.96367 -2.31125,-2.7305c-2.35425,-2.00308 -4.91992,-4.00258 -7.56083,-5.67242c-1.46558,-0.9245 -3.27875,-1.5265 -4.83033,-2.31125c-0.52317,-0.26517 -1.4405,-0.40133 -1.7845,-0.8385c-0.817,-1.03917 -1.25775,-2.36142 -1.88842,-3.569c-1.31867,-2.537 -2.61583,-5.3105 -3.78042,-7.98008c-0.79908,-1.82033 -1.31867,-3.61917 -2.31125,-5.25317c-4.76942,-7.84033 -9.90433,-12.57392 -17.85217,-17.22508c-1.69133,-0.989 -3.73025,-1.37958 -5.88383,-1.892c-1.15742,-0.06808 -2.31125,-0.13975 -3.46867,-0.21142c-0.70592,-0.29742 -1.43692,-1.15742 -2.10342,-1.57667c-2.63375,-1.66625 -9.39192,-5.28542 -11.34125,-0.52675c-1.23267,3.00283 1.84183,5.934 2.94192,7.45692c0.77042,1.06783 1.75942,2.26467 2.31125,3.46867c0.36192,0.78833 0.42642,1.58025 0.73458,2.41517c0.76325,2.05683 1.97083,4.40033 2.95983,6.30308c0.49808,0.96392 1.04992,1.97442 1.68058,2.83442c0.387,0.52675 1.04992,0.75967 1.15742,1.57667c-0.64858,0.90658 -0.68442,2.31483 -1.04992,3.46867c-1.64117,5.17792 -1.02125,11.61 1.36525,15.437c0.731,1.17533 2.45817,3.698 4.83033,2.7305c2.07475,-0.84567 1.6125,-3.46508 2.20375,-5.77633c0.13258,-0.52317 0.05017,-0.90658 0.31533,-1.25775c0,0.03583 0,0.06808 0,0.1075c0.63067,1.25775 1.25775,2.52267 1.892,3.78042c1.40108,2.25392 3.88433,4.60817 5.98417,6.19917c1.08933,0.82417 1.94933,2.25033 3.36117,2.7305c0,-0.03583 0,-0.06808 0,-0.1075c-0.03583,0 -0.06808,0 -0.1075,0c-0.27233,-0.42642 -0.70233,-0.602 -1.04992,-0.946c-0.82058,-0.80625 -1.73792,-1.806 -2.41517,-2.7305c-1.9135,-2.59792 -3.60483,-5.44308 -5.14567,-8.40292c-0.73458,-1.41542 -1.376,-2.97058 -1.99592,-4.41108c-0.24008,-0.55542 -0.2365,-1.39392 -0.73458,-1.68058c-0.68083,1.0535 -1.677,1.90633 -2.20375,3.14975c-0.8385,1.98875 -0.94958,4.41825 -1.25775,6.93017c-0.18633,0.0645 -0.10392,0.0215 -0.21142,0.10392c-1.462,-0.35475 -1.978,-1.85617 -2.52267,-3.14975c-1.376,-3.268 -1.63042,-8.52833 -0.41925,-12.28725c0.31175,-0.97467 1.72717,-4.03842 1.15742,-4.93783c-0.27233,-0.89942 -1.17533,-1.419 -1.677,-2.10342c-0.62708,-0.84567 -1.247,-1.96367 -1.68058,-2.94192c-1.12517,-2.54775 -2.193,-5.51117 -3.37908,-8.08758c-0.56617,-1.23267 -1.52292,-2.47608 -2.31125,-3.569c-0.87075,-1.21117 -1.849,-2.10342 -2.52267,-3.569c-0.24008,-0.51958 -0.56617,-1.3545 -0.21142,-1.892c0.11467,-0.36192 0.27233,-0.51242 0.63067,-0.63067c0.60917,-0.473 2.30408,0.15408 2.94192,0.41925c1.68417,0.69875 3.08883,1.36525 4.515,2.31125c0.68442,0.45508 1.376,1.333 2.20375,1.57667c0.31533,0 0.63067,0 0.946,0c1.47992,0.34042 3.13542,0.1075 4.515,0.52675c2.44383,0.74175 4.62967,1.89558 6.61483,3.14975c6.05583,3.82342 11.00442,9.26292 14.39067,15.75592c0.54467,1.04633 0.78117,2.0425 1.25775,3.14975c0.9675,2.236 2.18942,4.5365 3.14975,6.72233c0.96033,2.18225 1.89917,4.38242 3.25725,6.19917c0.71667,0.95317 3.47583,1.46558 4.72642,1.99592c0.87792,0.37267 2.31842,0.75608 3.14975,1.25775c1.591,0.96033 3.13183,2.10342 4.61892,3.14975c0.75967,0.52675 3.04942,1.677 3.16408,2.62658z" fill="#00796b"></path><path d="M118.60117,50.96575c-0.77042,-0.01433 -1.31508,0.08242 -1.892,0.21142c0,0.03583 0,0.06808 0,0.1075c0.03583,0 0.06808,0 0.1075,0c0.36908,0.7525 1.01408,1.24342 1.46917,1.892c0.35117,0.73458 0.69875,1.46917 1.04992,2.20375c0.03583,-0.03583 0.06808,-0.06808 0.10392,-0.10392c0.64858,-0.45867 0.94958,-1.18967 0.946,-2.31125c-0.26158,-0.27592 -0.301,-0.61992 -0.52675,-0.946c-0.301,-0.44075 -0.8815,-0.688 -1.25775,-1.0535z" fill="#00796b"></path></g></g></svg>