<svg xmlns="http://www.w3.org/2000/svg" x="0px" y="0px"
width="48" height="48"
viewBox="0 0 172 172"
style=" fill:#000000;"><g fill="none" fill-rule="none" stroke="none" stroke-width="1" stroke-linecap="butt" stroke-linejoin="miter" stroke-miterlimit="10" stroke-dasharray="" stroke-dashoffset="0" font-family="none" font-weight="none" font-size="none" text-anchor="none" style="mix-blend-mode: normal"><path d="M0,172v-172h172v172z" fill="none" fill-rule="nonzero"></path><g><path d="M86.1505,14.448c39.49908,0 71.51617,32.01708 71.51617,71.51617c0,39.4955 -32.01708,71.51617 -71.51617,71.51617c-39.4955,0 -71.51617,-32.01708 -71.51617,-71.51617c0.00358,-39.49908 32.02067,-71.51617 71.51617,-71.51617z" fill="#f06292" fill-rule="evenodd"></path><path d="M131.01025,45.05683c-3.23933,-12.70292 -24.29858,-16.8775 -44.22908,-9.79683c-11.86083,4.214 -24.7035,10.82883 -33.93775,19.46467c-10.97933,10.26983 -12.728,19.20667 -12.00775,22.9405c2.54417,13.17592 20.60058,21.79025 28.02167,28.18292v0.03942c-2.18942,1.07858 -18.20692,9.18408 -21.95508,17.47233c-3.956,8.74333 0.63067,15.01775 3.66575,15.86342c9.40625,2.61583 19.05617,-2.08908 24.24483,-9.8255c5.00592,-7.46767 4.59025,-17.10683 2.41517,-21.90492c2.99925,-0.79192 6.50017,-1.14667 10.9435,-0.62708c12.54525,1.46558 15.007,9.29875 14.534,12.5775c-0.46942,3.27875 -3.10317,5.08117 -3.98108,5.62583c-0.8815,0.54467 -1.14667,0.73458 -1.075,1.13592c0.1075,0.58767 0.51242,0.56617 1.26492,0.44075c1.032,-0.17558 6.58617,-2.666 6.82625,-8.71825c0.301,-7.68267 -7.05917,-16.2755 -20.09533,-16.05333c-5.36783,0.09317 -8.74333,0.602 -11.18358,1.51217c-0.17917,-0.20425 -0.3655,-0.4085 -0.55183,-0.61275c-8.05892,-8.6 -22.95842,-14.68092 -22.32775,-26.24075c0.22933,-4.20325 1.69133,-15.26858 28.62725,-28.69175c22.06617,-10.99725 39.732,-7.96933 42.785,-1.26492c4.36092,9.58183 -9.44208,27.38742 -32.3575,29.95667c-8.73258,0.97825 -13.33,-2.40442 -14.47308,-3.66575c-1.204,-1.32583 -1.38317,-1.38675 -1.83108,-1.13592c-0.731,0.40492 -0.26875,1.57667 0,2.27542c0.68442,1.78092 3.49375,4.93783 8.2775,6.51092c4.21042,1.38317 14.46233,2.13925 26.86067,-2.65525c13.88183,-5.375 24.725,-20.3175 21.53942,-32.80542zM71.939,109.78617c1.03917,3.8485 0.9245,7.439 -0.14692,10.68908c-0.11825,0.36192 -0.25083,0.71667 -0.39417,1.07142c-0.14333,0.35117 -0.29742,0.70233 -0.46225,1.04633c-0.82775,1.72 -1.94217,3.32892 -3.30383,4.816c-4.15667,4.53292 -9.96167,6.24575 -12.4485,4.80167c-2.6875,-1.55875 -1.34017,-7.94783 3.47583,-13.04333c5.1815,-5.47892 12.63842,-9.00133 12.63842,-9.00133l-0.01075,-0.0215c0.215,-0.11825 0.43358,-0.2365 0.65217,-0.35833z" fill="#ffffff" fill-rule="nonzero"></path></g></g></svg>