<svg xmlns="http://www.w3.org/2000/svg">
<defs>
<radialGradient id="IconifyId-176d4034ff9-caad16-6503" cx=".837" cy="-125.811" r="363.057" gradientTransform="matrix(.463 0 0 .463 76.464 81.918)" gradientUnits="userSpaceOnUse"><stop offset="0" stop-color="#fff"/><stop offset=".5" stop-color="#4c6b97"/><stop offset="1" stop-color="#231f20"/></radialGradient>
</defs>
<symbol id="back-splash" viewBox="0 0 600 600"> <path stroke="none" stroke-width="0" fill="#f5f5f5" d="M300,521.0016835830174C376.1290562159157,517.8887921683347,466.0731472004068,529.7835943286574,510.70327084640275,468.03025145048787C554.3714126377745,407.6079735673963,508.03601936045806,328.9844924480964,491.2728898941984,256.3432110539036C474.5976632858925,184.082847569629,479.9380746630129,96.60480741107993,416.23090153303,58.64404602377083C348.86323505073057,18.502131276798302,261.93793281208167,40.57373210992963,193.5410806939664,78.93577620505333C130.42746243093433,114.334589627462,98.30271207620316,179.96522072025542,76.75703585869454,249.04625023123273C51.97151888228291,328.5150500222984,13.704378332031375,421.85034740162234,66.52175969318436,486.19268352777647C119.04800174914682,550.1803526380478,217.28368757567262,524.383925680826,300,521.0016835830174"/> </symbol>
<symbol id="icon-calendar" viewBox="0 0 172 172"><g fill="none" fill-rule="nonzero" stroke="none" stroke-width="1" stroke-linecap="butt" stroke-linejoin="miter" stroke-miterlimit="10" stroke-dasharray="" stroke-dashoffset="0" font-family="none" font-weight="none" font-size="none" text-anchor="none" style="mix-blend-mode: normal"><path d="M0,172v-172h172v172z" fill="none"/><g fill="#ffffff"><path d="M48.375,21.5v5.375h-21.5v118.25h118.25v-118.25h-21.5v-5.375h-10.75v5.375h-53.75v-5.375zM37.625,37.625h10.75v5.375h10.75v-5.375h53.75v5.375h10.75v-5.375h10.75v10.75h-96.75zM37.625,59.125h96.75v75.25h-96.75zM69.875,69.875v10.75h10.75v-10.75zM91.375,69.875v10.75h10.75v-10.75zM112.875,69.875v10.75h10.75v-10.75zM48.375,91.375v10.75h10.75v-10.75zM69.875,91.375v10.75h10.75v-10.75zM91.375,91.375v10.75h10.75v-10.75zM112.875,91.375v10.75h10.75v-10.75zM48.375,112.875v10.75h75.25v-10.75z"/></g></g></symbol>
<symbol id="icon-check" viewBox="0 0 172 172"> <g fill="none" fill-rule="nonzero" stroke="none" stroke-width="1" stroke-linecap="butt" stroke-linejoin="miter" stroke-miterlimit="10" stroke-dasharray="" stroke-dashoffset="0" font-family="none" font-weight="none" font-size="none" text-anchor="none" style="mix-blend-mode: normal"><path d="M0,172v-172h172v172z" fill="none"/><g fill="#ffffff"><path d="M86.0105,14.02539l-3.7373,3.61133l-14.06739,13.59497l-24.51294,-3.46436l-4.2727,24.38696l-21.86743,11.60034l10.86548,22.24536l-10.86548,22.24536l21.86743,11.60034l4.2727,24.38696l24.51294,-3.46435l17.80469,17.2063l17.78369,-17.2063l24.51294,3.46435l4.2832,-24.38696l21.86743,-11.60034l-10.86548,-22.24536l10.86548,-22.24536l-21.86743,-11.60034l-4.2832,-24.38696l-24.51294,3.46436zM86,28.97461l14.09888,13.63696l19.42139,-2.73999l3.39087,19.31641l17.32178,9.19629l-8.6084,17.61572l8.6084,17.61572l-17.32178,9.19629l-3.39087,19.31641l-19.42139,-2.73999l-14.09888,13.63696l-14.08838,-13.63696l-19.42139,2.73999l-3.39087,-19.31641l-17.32178,-9.19629l8.6084,-17.61572l-8.6084,-17.61572l17.32178,-9.19629l3.39087,-19.31641l19.42139,2.73999zM112.60205,64.5l-33.59375,33.59375l-17.46875,-17.46875l-7.5166,7.5271l24.98535,24.99585l41.12085,-41.12085z"/></g></g> </symbol>
<symbol id="icon-chevron" viewBox="0 0 172 172"><g fill="none" fill-rule="nonzero" stroke="none" stroke-width="1" stroke-linecap="butt" stroke-linejoin="miter" stroke-miterlimit="10" stroke-dasharray="" stroke-dashoffset="0" font-family="none" font-weight="none" font-size="none" text-anchor="none" style="mix-blend-mode: normal"><path d="M0,172v-172h172v172z" fill="none"/><g fill="#ffffff"><path d="M86,50.16667l-64.5,43v28.66667l64.5,-43l64.5,43v-28.66667z"/></g></g></symbol>
<symbol id="icon-design" viewBox="0 0 172 172"><g fill="none" fill-rule="nonzero" stroke="none" stroke-width="1" stroke-linecap="butt" stroke-linejoin="miter" stroke-miterlimit="10" stroke-dasharray="" stroke-dashoffset="0" font-family="none" font-weight="none" font-size="none" text-anchor="none" style="mix-blend-mode: normal"><path d="M0,172v-172h172v172z" fill="none"/><g fill="#e67e22"><path d="M82.93457,16.146c-2.67099,0.09334 -5.37312,0.3322 -8.094,0.73486l-0.04199,0.0105h-0.04199c-28.60915,4.67088 -51.76682,27.27124 -57.60278,55.79712c-1.74278,8.14677 -1.7283,15.84535 -0.58789,23.32666c1.64277,12.74153 18.10365,18.28259 27.3894,8.99683c6.62047,-6.62047 16.41224,-6.62047 23.03272,0c6.62047,6.62047 6.62047,16.41225 0,23.03272c-9.28576,9.28576 -3.74471,25.74663 8.99683,27.3894c7.46448,1.13784 15.14774,1.14317 23.27417,-0.58789c9.15115,-1.69444 17.66775,-5.30026 25.18482,-10.31958c2.06745,6.52613 8.13617,11.34839 15.30615,11.34839c8.84171,0 16.125,-7.28329 16.125,-16.125v-66.80957c3.30179,-3.76109 5.375,-8.55916 5.375,-13.81543c0,-7.35927 -4.28415,-12.1528 -7.68457,-16.34546c-3.40042,-4.19266 -6.67471,-8.45637 -8.56641,-17.05933l-2.03662,-9.26977l-6.89722,6.51929c-2.90764,2.74359 -5.24919,5.42271 -7.31714,8.0625c-10.62456,-8.29632 -23.69268,-13.64539 -37.89795,-14.72876c-2.6047,-0.19865 -5.24454,-0.25081 -7.91553,-0.15747zM83.36499,26.8855c15.03655,-0.53439 28.76437,4.56427 39.52514,13.26953c-3.53315,7.06024 -4.64014,13.51634 -4.64014,18.96997c0,5.32376 2.06326,10.2931 5.375,14.15136v1.97364v6.82373c-1.63338,-0.94648 -3.48721,-1.44614 -5.375,-1.44873c-5.93706,0 -10.75,4.81294 -10.75,10.75c0,5.93706 4.81294,10.75 10.75,10.75c1.88779,-0.00258 3.74162,-0.50225 5.375,-1.44873v30.94824c-7.54952,6.32763 -16.54476,10.86198 -26.39209,12.67114l-0.08398,0.02099l-0.07349,0.0105c-6.85842,1.46967 -13.10264,1.47604 -19.55786,0.48291l-0.07349,-0.0105l-0.07349,-0.0105c-4.41526,-0.55191 -6.38146,-5.54432 -2.78198,-9.1438c10.57953,-10.57953 10.57953,-27.65435 0,-38.23389c-10.57953,-10.57953 -27.65436,-10.57953 -38.23389,0c-3.59948,3.59978 -8.59189,1.63327 -9.1438,-2.78198l-0.0105,-0.07349l-0.0105,-0.07349c-0.99311,-6.45522 -0.98675,-12.69944 0.48291,-19.55786v-0.02099l0.0105,-0.03149c4.92291,-24.1222 24.73401,-43.41699 48.77392,-47.35669c2.32553,-0.34255 4.63356,-0.54906 6.90772,-0.62988zM138.1333,37.74048c2.29438,4.91413 4.82018,9.01636 7.08618,11.8103c3.60723,4.44765 5.28052,6.18349 5.28052,9.57422c0,5.19919 -5.0325,10.50771 -10.97046,10.75c-5.5465,0.22632 -10.52954,-5.07524 -10.52954,-10.75c0,-6.03612 2.5689,-13.03268 9.1333,-21.38452zM75.09253,37.78247c-5.93706,0 -10.75,4.81294 -10.75,10.75c0,5.93706 4.81294,10.75 10.75,10.75c5.93706,0 10.75,-4.81294 10.75,-10.75c0,-5.93706 -4.81294,-10.75 -10.75,-10.75zM107.5,48.375c-5.93706,0 -10.75,4.81294 -10.75,10.75c0,5.93706 4.81294,10.75 10.75,10.75c5.93706,0 10.75,-4.81294 10.75,-10.75c0,-5.93706 -4.81294,-10.75 -10.75,-10.75zM48.21753,59.28247c-5.93706,0 -10.75,4.81294 -10.75,10.75c0,5.93706 4.81294,10.75 10.75,10.75c5.93706,0 10.75,-4.81294 10.75,-10.75c0,-5.93706 -4.81294,-10.75 -10.75,-10.75zM134.375,80.625h10.75v10.75h-10.75zM134.375,102.125h10.75v37.625c0,3.03704 -2.33796,5.375 -5.375,5.375c-3.03704,0 -5.375,-2.33796 -5.375,-5.375zM101.96753,113.03247c-5.93706,0 -10.75,4.81294 -10.75,10.75c0,5.93706 4.81294,10.75 10.75,10.75c5.93706,0 10.75,-4.81294 10.75,-10.75c0,-5.93706 -4.81294,-10.75 -10.75,-10.75z"/></g></g></symbol>
<symbol id="icon-download" viewBox="0 0 172 172"><g fill="none" fill-rule="nonzero" stroke="none" stroke-width="1" stroke-linecap="butt" stroke-linejoin="miter" stroke-miterlimit="10" stroke-dasharray="" stroke-dashoffset="0" font-family="none" font-weight="none" font-size="none" text-anchor="none" style="mix-blend-mode: normal"><path d="M0,172v-172h172v172z" fill="none"/><g fill="#ffffff"><path d="M32.25,16.125v139.75h107.5v-104.2771l-1.6167,-1.6062l-32.25,-32.25l-1.6062,-1.6167zM43,26.875h53.75v32.25h32.25v86h-86zM107.5,34.4021l13.9729,13.9729h-13.9729zM80.625,69.875v26.875h-16.125l21.5,21.5l21.5,-21.5h-16.125v-26.875zM64.5,123.625v10.75h43v-10.75z"/></g></g></symbol>
<symbol id="icon-email" viewBox="0 0 172 172"><g fill="none" fill-rule="nonzero" stroke="none" stroke-width="1" stroke-linecap="butt" stroke-linejoin="miter" stroke-miterlimit="10" stroke-dasharray="" stroke-dashoffset="0" font-family="none" font-weight="none" font-size="none" text-anchor="none" style="mix-blend-mode: normal"><path d="M0,172v-172h172v172z" fill="none"/><g fill="#3498db"><path d="M14.33333,28.66667v12.54167l71.66667,44.79167l71.66667,-44.79167v-12.54167zM14.33333,55.55566v87.77767h143.33333v-87.77767l-71.66667,44.77767z"/></g></g></symbol>
<symbol id="icon-github" viewBox="0 0 172 172"><g fill="none" fill-rule="nonzero" stroke="none" stroke-width="1" stroke-linecap="butt" stroke-linejoin="miter" stroke-miterlimit="10" stroke-dasharray="" stroke-dashoffset="0" font-family="none" font-weight="none" font-size="none" text-anchor="none" style="mix-blend-mode: normal"><path d="M0,172v-172h172v172z" fill="none"/><g fill="#000000"><path d="M86,17.2c-37.9948,0 -68.8,30.8052 -68.8,68.8c0,32.23853 22.19947,59.21387 52.12747,66.67867c-0.32107,-0.9288 -0.52747,-2.00667 -0.52747,-3.34253v-11.75907c-2.79213,0 -7.47053,0 -8.64587,0c-4.70707,0 -8.8924,-2.02387 -10.922,-5.78493c-2.2532,-4.1796 -2.64307,-10.57227 -8.22733,-14.4824c-1.65693,-1.30147 -0.3956,-2.7864 1.5136,-2.58573c3.526,0.9976 6.45,3.41707 9.202,7.00613c2.74053,3.5948 4.03053,4.40893 9.1504,4.40893c2.48253,0 6.19773,-0.14333 9.69507,-0.69373c1.88053,-4.77587 5.13133,-9.17333 9.10453,-11.2488c-22.9104,-2.3564 -33.84387,-13.75427 -33.84387,-29.22853c0,-6.66213 2.838,-13.1064 7.65973,-18.53587c-1.5824,-5.38933 -3.57187,-16.38013 0.60773,-20.56547c10.30853,0 16.54067,6.68507 18.03707,8.49107c5.13707,-1.76013 10.77867,-2.75773 16.70693,-2.75773c5.93973,0 11.60427,0.9976 16.7528,2.7692c1.4792,-1.79453 7.71707,-8.50253 18.04853,-8.50253c4.1968,4.19107 2.1844,15.22773 0.5848,20.6056c4.79307,5.418 7.61387,11.84507 7.61387,18.49573c0,15.4628 -10.91627,26.85493 -33.79227,29.2228c6.2952,3.2852 10.8876,12.51587 10.8876,19.4704v15.67493c0,0.59627 -0.13187,1.02627 -0.20067,1.53653c26.80907,-9.39693 46.06733,-34.85293 46.06733,-64.87267c0,-37.9948 -30.8052,-68.8 -68.8,-68.8z"/></g></g></symbol>
<symbol id="icon-group" viewBox="0 0 172 172"><g fill="none" fill-rule="nonzero" stroke="none" stroke-width="1" stroke-linecap="butt" stroke-linejoin="miter" stroke-miterlimit="10" stroke-dasharray="" stroke-dashoffset="0" font-family="none" font-weight="none" font-size="none" text-anchor="none" style="mix-blend-mode: normal"><path d="M0,172v-172h172v172z" fill="none"/><g fill="#ffffff"><path d="M53.75,21.5v43h24.12451l8.12549,11.22241l8.12549,-11.22241h24.12451v-43h-5.375zM64.5,32.25h43v21.5h-18.87549l-2.62451,3.62183l-2.62451,-3.62183h-18.87549zM59.125,80.625c-6.71875,0 -12.44191,2.71306 -16.1145,6.84473c-3.67259,4.13166 -5.3855,9.42958 -5.3855,14.65527c0,5.22569 1.71291,10.52361 5.3855,14.65527c1.36296,1.53334 3.26027,2.6192 5.13354,3.69531c-12.32417,4.54204 -21.26904,16.16794 -21.26904,30.02442h10.75c0,-11.93452 9.56549,-21.5 21.5,-21.5c11.93452,0 21.5,9.56548 21.5,21.5h10.75c0,-11.93452 9.56548,-21.5 21.5,-21.5c11.93452,0 21.5,9.56548 21.5,21.5h10.75c0,-13.85648 -8.94487,-25.48237 -21.26904,-30.02442c1.87328,-1.07611 3.77058,-2.16198 5.13354,-3.69531c3.67259,-4.13166 5.3855,-9.42958 5.3855,-14.65527c0,-5.22569 -1.71291,-10.52361 -5.3855,-14.65527c-3.67259,-4.13167 -9.39575,-6.84473 -16.1145,-6.84473c-6.71875,0 -12.44191,2.71306 -16.1145,6.84473c-3.67259,4.13166 -5.3855,9.42958 -5.3855,14.65527c0,5.22569 1.71291,10.52361 5.3855,14.65527c1.36296,1.53334 3.26027,2.6192 5.13354,3.69531c-6.76309,2.49253 -12.11385,7.27506 -15.89404,13.30103c-3.78019,-6.02597 -9.13095,-10.80851 -15.89404,-13.30103c1.87328,-1.07611 3.77058,-2.16198 5.13354,-3.69531c3.67259,-4.13166 5.3855,-9.42958 5.3855,-14.65527c0,-5.22569 -1.71291,-10.52361 -5.3855,-14.65527c-3.67259,-4.13167 -9.39575,-6.84473 -16.1145,-6.84473zM59.125,91.375c4.03124,0 6.37059,1.31819 8.073,3.2334c1.70241,1.91521 2.677,4.6798 2.677,7.5166c0,2.83681 -0.97459,5.60139 -2.677,7.5166c-1.70241,1.91521 -4.04175,3.2334 -8.073,3.2334c-4.03124,0 -6.37059,-1.31819 -8.073,-3.2334c-1.70241,-1.91521 -2.677,-4.6798 -2.677,-7.5166c0,-2.83681 0.97459,-5.60139 2.677,-7.5166c1.70241,-1.91521 4.04175,-3.2334 8.073,-3.2334zM112.875,91.375c4.03124,0 6.37059,1.31819 8.073,3.2334c1.70241,1.91521 2.677,4.6798 2.677,7.5166c0,2.83681 -0.97459,5.60139 -2.677,7.5166c-1.70241,1.91521 -4.04175,3.2334 -8.073,3.2334c-4.03124,0 -6.37059,-1.31819 -8.073,-3.2334c-1.70241,-1.91521 -2.677,-4.6798 -2.677,-7.5166c0,-2.83681 0.97459,-5.60139 2.677,-7.5166c1.70241,-1.91521 4.04175,-3.2334 8.073,-3.2334z"/></g></g></symbol>
<symbol id="icon-linkedin" viewBox="0 0 172 172"><g fill="none" fill-rule="nonzero" stroke="none" stroke-width="1" stroke-linecap="butt" stroke-linejoin="miter" stroke-miterlimit="10" stroke-dasharray="" stroke-dashoffset="0" font-family="none" font-weight="none" font-size="none" text-anchor="none" style="mix-blend-mode: normal"><path d="M0,172v-172h172v172z" fill="none"/><g fill="#000000"><path d="M141.04,13.76h-110.08c-9.4944,0 -17.2,7.7056 -17.2,17.2v110.08c0,9.4944 7.7056,17.2 17.2,17.2h110.08c9.4944,0 17.2,-7.7056 17.2,-17.2v-110.08c0,-9.4944 -7.7056,-17.2 -17.2,-17.2zM58.48,68.8v65.36h-20.64v-65.36zM37.84,49.7768c0,-4.816 4.128,-8.4968 10.32,-8.4968c6.192,0 10.0792,3.6808 10.32,8.4968c0,4.816 -3.8528,8.7032 -10.32,8.7032c-6.192,0 -10.32,-3.8872 -10.32,-8.7032zM134.16,134.16h-20.64c0,0 0,-31.8544 0,-34.4c0,-6.88 -3.44,-13.76 -12.04,-13.8976h-0.2752c-8.3248,0 -11.7648,7.0864 -11.7648,13.8976c0,3.1304 0,34.4 0,34.4h-20.64v-65.36h20.64v8.8064c0,0 6.6392,-8.8064 19.9864,-8.8064c13.6568,0 24.7336,9.3912 24.7336,28.4144z"/></g></g></symbol>
<symbol id="icon-medal" viewBox="0 0 172 172"><g fill="none" fill-rule="nonzero" stroke="none" stroke-width="1" stroke-linecap="butt" stroke-linejoin="miter" stroke-miterlimit="10" stroke-dasharray="" stroke-dashoffset="0" font-family="none" font-weight="none" font-size="none" text-anchor="none" style="mix-blend-mode: normal"><path d="M0,172v-172h172v172z" fill="none"/><g fill="#ffffff"><path d="M37.625,16.125l22.92773,55.68164c-13.73811,8.5438 -22.92773,23.73635 -22.92773,41.06836c0,26.67075 21.69888,48.375 48.375,48.375c26.67613,0 48.375,-21.70425 48.375,-48.375c0,-17.332 -9.18962,-32.52456 -22.92773,-41.06836l22.92773,-55.68164h-11.62134l-21.02759,51.052c-3.53245,-1.21929 -7.22878,-2.06703 -11.07544,-2.43555l20.00928,-48.61646h-11.62134l-20.16675,48.96289c-2.96307,0.44037 -5.83433,1.13521 -8.5979,2.08911l-21.02759,-51.052zM61.34009,16.125l13.65796,33.18433l5.81592,-14.11987l-7.85254,-19.06445zM86,75.25c20.74213,0 37.625,16.8775 37.625,37.625c0,20.7475 -16.88287,37.625 -37.625,37.625c-20.74213,0 -37.625,-16.8775 -37.625,-37.625c0,-20.7475 16.88287,-37.625 37.625,-37.625zM86,92.24634l-6.27783,14.07788l-15.22217,1.66919l11.39038,10.2356l-3.2019,15.10669l13.31152,-7.68457l13.31152,7.68457l-3.2019,-15.10669l11.39038,-10.2356l-15.22217,-1.66919z"/></g></g></symbol>
<symbol id="icon-phone" viewBox="0 0 172 172"><g fill="none" fill-rule="nonzero" stroke="none" stroke-width="1" stroke-linecap="butt" stroke-linejoin="miter" stroke-miterlimit="10" stroke-dasharray="" stroke-dashoffset="0" font-family="none" font-weight="none" font-size="none" text-anchor="none" style="mix-blend-mode: normal"><path d="M0,172v-172h172v172z" fill="none"/><g fill="#3498db"><path d="M112.875,106.425l-18.20333,18.13167c-10.97933,-5.7835 -19.77283,-12.52017 -27.219,-20.00933c-7.48917,-7.44617 -14.22583,-16.23967 -20.00933,-27.219l18.13167,-18.20333l-4.57233,-37.625h-39.50267c0,0 0,2.35067 0,7.16667c0,32.5295 13.18667,63.597 35.58967,86.24367c22.64667,22.403 53.71417,35.58967 86.24367,35.58967c4.816,0 7.16667,0 7.16667,0v-39.50267z"/></g></g></symbol>
<symbol id="icon-responsive" viewBox="0 0 172 172"><g fill="none" fill-rule="nonzero" stroke="none" stroke-width="1" stroke-linecap="butt" stroke-linejoin="miter" stroke-miterlimit="10" stroke-dasharray="" stroke-dashoffset="0" font-family="none" font-weight="none" font-size="none" text-anchor="none" style="mix-blend-mode: normal"><path d="M0,172v-172h172v172z" fill="none"/><g fill="#34495e"><path d="M21.5,26.875v43h129v-43zM32.25,37.625h107.5v21.5h-107.5zM43,43c-2.96045,0 -5.375,2.41455 -5.375,5.375c0,2.96045 2.41455,5.375 5.375,5.375c2.96045,0 5.375,-2.41455 5.375,-5.375c0,-2.96045 -2.41455,-5.375 -5.375,-5.375zM59.125,43c-2.96045,0 -5.375,2.41455 -5.375,5.375c0,2.96045 2.41455,5.375 5.375,5.375c2.96045,0 5.375,-2.41455 5.375,-5.375c0,-2.96045 -2.41455,-5.375 -5.375,-5.375zM75.25,43c-2.96045,0 -5.375,2.41455 -5.375,5.375c0,2.96045 2.41455,5.375 5.375,5.375c2.96045,0 5.375,-2.41455 5.375,-5.375c0,-2.96045 -2.41455,-5.375 -5.375,-5.375zM21.5,75.25v69.875h129v-69.875h-10.75v59.125h-107.5v-59.125zM43,80.625v43h43v-43zM96.75,80.625v10.75h32.25v-10.75zM53.75,91.375h21.5v21.5h-21.5zM96.75,96.75v10.75h32.25v-10.75zM96.75,112.875v10.75h32.25v-10.75z"/></g></g></symbol>
<symbol id="icon-whatsapp" viewBox="0 0 172 172"><g fill="none" fill-rule="nonzero" stroke="none" stroke-width="1" stroke-linecap="butt" stroke-linejoin="miter" stroke-miterlimit="10" stroke-dasharray="" stroke-dashoffset="0" font-family="none" font-weight="none" font-size="none" text-anchor="none" style="mix-blend-mode: normal"><path d="M0,172v-172h172v172z" fill="none"/><g fill="#000000"><path d="M136.7185,35.31733c-13.51633,-13.5235 -31.49033,-20.97683 -50.63967,-20.984c-39.45967,0 -71.5735,32.0995 -71.58783,71.55917c-0.00717,12.61333 3.2895,24.92567 9.55317,35.776l-9.71083,35.99817l37.50317,-8.86517c10.45617,5.70467 22.22383,8.7075 34.2065,8.71467h0.02867c39.4525,0 71.56633,-32.10667 71.58783,-71.55917c0.01433,-19.12783 -7.42467,-37.109 -20.941,-50.63967zM121.10233,111.47033c-1.49067,4.17817 -8.7935,8.20583 -12.07583,8.49967c-3.28233,0.301 -6.35683,1.4835 -21.46417,-4.472c-18.18183,-7.16667 -29.66283,-25.80717 -30.5515,-26.99683c-0.89583,-1.19683 -7.30283,-9.6965 -7.30283,-18.49717c0,-8.80067 4.6225,-13.12933 6.26367,-14.91383c1.64117,-1.79167 3.57617,-2.236 4.773,-2.236c1.18967,0 2.3865,0 3.42567,0.043c1.27567,0.05017 2.6875,0.11467 4.02767,3.08883c1.591,3.54033 5.06683,12.384 5.51117,13.27983c0.44433,0.89583 0.74533,1.94217 0.1505,3.13183c-0.59483,1.18967 -0.89583,1.935 -1.7845,2.98133c-0.89583,1.04633 -1.87767,2.32917 -2.68033,3.13183c-0.89583,0.88867 -1.8275,1.86333 -0.78833,3.64783c1.04633,1.79167 4.62967,7.64683 9.94733,12.384c6.837,6.09167 12.59183,7.9765 14.3835,8.8795c1.79167,0.89583 2.83083,0.74533 3.87717,-0.4515c1.04633,-1.18967 4.472,-5.21733 5.66167,-7.009c1.18967,-1.79167 2.3865,-1.49067 4.02767,-0.89583c1.64117,0.59483 10.43467,4.9235 12.21917,5.81933c1.79167,0.89583 2.98133,1.34017 3.42567,2.0855c0.44433,0.73817 0.44433,4.3215 -1.04633,8.49967z"/></g></g></symbol>
<symbol id="logo-android" viewBox="0 0 172 172"><g fill="none" fill-rule="nonzero" stroke="none" stroke-width="1" stroke-linecap="butt" stroke-linejoin="miter" stroke-miterlimit="10" stroke-dasharray="" stroke-dashoffset="0" font-family="none" font-weight="none" font-size="none" text-anchor="none" style="mix-blend-mode: normal"><path d="M0,172v-172h172v172z" fill="none"/><g fill="#7cb342"><path d="M43,103.91667c0,3.94167 -3.225,7.16667 -7.16667,7.16667c-3.94167,0 -7.16667,-3.225 -7.16667,-7.16667v-32.25c0,-3.94167 3.225,-7.16667 7.16667,-7.16667c3.94167,0 7.16667,3.225 7.16667,7.16667zM143.33333,103.91667c0,3.94167 -3.225,7.16667 -7.16667,7.16667c-3.94167,0 -7.16667,-3.225 -7.16667,-7.16667v-32.25c0,-3.94167 3.225,-7.16667 7.16667,-7.16667c3.94167,0 7.16667,3.225 7.16667,7.16667zM78.83333,143.33333c0,3.94167 -3.225,7.16667 -7.16667,7.16667c-3.94167,0 -7.16667,-3.225 -7.16667,-7.16667v-32.25c0,-3.94167 3.225,-7.16667 7.16667,-7.16667c3.94167,0 7.16667,3.225 7.16667,7.16667zM107.5,143.33333c0,3.94167 -3.225,7.16667 -7.16667,7.16667c-3.94167,0 -7.16667,-3.225 -7.16667,-7.16667v-32.25c0,-3.94167 3.225,-7.16667 7.16667,-7.16667c3.94167,0 7.16667,3.225 7.16667,7.16667z"/><path d="M50.16667,64.5v53.75c0,3.94167 3.225,7.16667 7.16667,7.16667h57.33333c3.94167,0 7.16667,-3.225 7.16667,-7.16667v-53.75zM86,28.66667c-21.5,0 -34.75833,12.9 -35.83333,28.66667h71.66667c-1.075,-15.76667 -14.33333,-28.66667 -35.83333,-28.66667zM71.66667,48.73333c-2.15,0 -3.58333,-1.43333 -3.58333,-3.58333c0,-2.15 1.43333,-3.58333 3.58333,-3.58333c2.15,0 3.58333,1.43333 3.58333,3.58333c0,1.79167 -1.43333,3.58333 -3.58333,3.58333zM100.33333,48.73333c-2.15,0 -3.58333,-1.43333 -3.58333,-3.58333c0,-2.15 1.43333,-3.58333 3.58333,-3.58333c2.15,0 3.58333,1.43333 3.58333,3.58333c0,1.79167 -1.43333,3.58333 -3.58333,3.58333z"/><path d="M101.40833,37.625c-0.71667,0 -1.43333,-0.35833 -2.15,-0.71667c-1.79167,-1.075 -2.15,-3.225 -1.075,-5.01667l6.09167,-8.95833c1.075,-1.79167 3.225,-2.15 5.01667,-1.075c1.79167,1.075 2.15,3.225 1.075,5.01667l-6.09167,8.95833c-0.35833,1.075 -1.43333,1.79167 -2.86667,1.79167zM69.15833,36.19167c-1.075,0 -2.50833,-0.71667 -2.86667,-1.79167l-4.65833,-7.525c-1.075,-1.79167 -0.71667,-3.94167 1.075,-5.01667c1.79167,-1.075 3.94167,-0.71667 5.01667,1.075l4.65833,7.525c1.075,1.79167 0.71667,3.94167 -1.075,5.01667c-0.71667,0.35833 -1.43333,0.71667 -2.15,0.71667z"/></g></g></symbol>
<symbol id="logo-bootstrap" viewBox="0 0 512 407.864"><path d="m106.344 0c-29.214 0-50.831 25.57-49.863 53.3.929 26.641-.278 61.145-8.964 89.283-8.717 28.217-23.449 46.098-47.517 48.393v25.912c24.068 2.3 38.8 20.172 47.516 48.393 8.687 28.138 9.893 62.642 8.964 89.283-.968 27.726 20.649 53.3 49.868 53.3h299.347c29.214 0 50.827-25.57 49.859-53.3-.929-26.641.278-61.145 8.964-89.283 8.717-28.221 23.413-46.1 47.482-48.393v-25.912c-24.068-2.3-38.764-20.172-47.482-48.393-8.687-28.134-9.893-62.642-8.964-89.283.968-27.726-20.645-53.3-49.859-53.3h-299.355zm240.775 251.067c0 38.183-28.481 61.34-75.746 61.34h-80.458a8.678 8.678 0 0 1 -8.678-8.678v-199.593a8.678 8.678 0 0 1 8.678-8.678h80c39.411 0 65.276 21.348 65.276 54.124 0 23.005-17.4 43.6-39.567 47.208v1.2c30.176 3.31 50.495 24.21 50.495 53.077zm-84.519-128.1h-45.876v64.8h38.639c29.87 0 46.34-12.028 46.34-33.527-.003-20.148-14.163-31.273-39.103-31.273zm-45.876 90.511v71.411h47.564c31.1 0 47.573-12.479 47.573-35.931s-16.935-35.484-49.573-35.484h-45.564z" fill="#7952b3" fill-rule="evenodd"/></symbol>
<symbol id="logo-c-sharp" viewBox="0 0 172 172"><g fill="none" fill-rule="none" stroke="none" stroke-width="1" stroke-linecap="butt" stroke-linejoin="miter" stroke-miterlimit="10" stroke-dasharray="" stroke-dashoffset="0" font-family="none" font-weight="none" font-size="none" text-anchor="none" style="mix-blend-mode: normal"><path d="M0,172v-172h172v172z" fill="none" fill-rule="nonzero"/><g fill-rule="evenodd"><path d="M82.06908,11.77483c2.43308,-1.36525 5.42875,-1.36525 7.85825,0c12.02208,6.74742 48.19942,27.05775 60.22508,33.80517c2.43308,1.36167 3.93092,3.88433 3.93092,6.61483c0,13.49483 0,54.11192 0,67.60675c0,2.7305 -1.49783,5.25317 -3.93092,6.61842c-12.02208,6.74742 -48.19942,27.05775 -60.22508,33.80517c-2.43308,1.36525 -5.42875,1.36525 -7.85825,0c-12.02208,-6.74742 -48.19942,-27.05775 -60.22508,-33.80517c-2.4295,-1.36525 -3.92733,-3.88433 -3.92733,-6.61483c0,-13.49483 0,-54.11192 0,-67.60675c0,-2.7305 1.49783,-5.25317 3.93092,-6.61842c12.0185,-6.74742 48.203,-27.05775 60.2215,-33.80517z" fill="#7f3089"/><path d="M19.006,123.281c-0.95317,-1.27567 -1.08933,-2.48683 -1.08933,-4.11725c0,-13.416 0,-53.80017 0,-67.21975c0,-2.71617 1.49425,-5.2245 3.92017,-6.579c11.97908,-6.708 48.03458,-26.90008 60.01367,-33.61167c2.42592,-1.35808 5.71183,-1.32942 8.13775,0.02867c11.97908,6.708 47.91275,26.72808 59.89183,33.43608c0.9675,0.54467 1.70567,1.20042 2.365,2.064z" fill="#9a4993"/><path d="M86,35.83333c27.68842,0 50.16667,22.47825 50.16667,50.16667c0,27.68842 -22.47825,50.16667 -50.16667,50.16667c-27.68842,0 -50.16667,-22.47825 -50.16667,-50.16667c0,-27.68842 22.47825,-50.16667 50.16667,-50.16667zM86,60.91667c13.84242,0 25.08333,11.23733 25.08333,25.08333c0,13.84242 -11.24092,25.08333 -25.08333,25.08333c-13.84242,0 -25.08333,-11.24092 -25.08333,-25.08333c0,-13.846 11.23733,-25.08333 25.08333,-25.08333z" fill="#ffffff"/><path d="M152.23792,47.31792c1.849,1.73075 1.81317,4.33942 1.81317,6.39267c0,13.59875 -0.11467,52.27725 0.03225,65.876c0.01433,1.419 -0.45508,2.91325 -1.15742,4.03842l-68.38433,-37.625z" fill="#813084"/><path d="M121.83333,71.66667h3.58333v28.66667h-3.58333zM132.58333,71.66667h3.58333v28.66667h-3.58333z" fill="#ffffff"/><path d="M114.66667,89.58333h28.66667v3.58333h-28.66667zM114.66667,78.83333h28.66667v3.58333h-28.66667z" fill="#ffffff"/></g></g></symbol>
<symbol id="logo-css" viewBox="0 0 172 172"><g fill="none" fill-rule="nonzero" stroke="none" stroke-width="1" stroke-linecap="butt" stroke-linejoin="miter" stroke-miterlimit="10" stroke-dasharray="" stroke-dashoffset="0" font-family="none" font-weight="none" font-size="none" text-anchor="none" style="mix-blend-mode: normal"><path d="M0,172v-172h172v172z" fill="none"/><g><path d="M146.91667,17.91667h-121.83333l10.75,121.83333l50.16667,14.33333l50.16667,-14.33333l10.75,-121.83333z" fill="#0277bd"/><path d="M86,28.66667v114.30833l40.13333,-11.46667l8.95833,-102.84167z" fill="#039be5"/><path d="M118.60833,46.58333h-32.60833v14.33333h17.55833l-1.075,14.33333h-16.48333v14.33333h15.76667l-1.075,16.125l-14.69167,5.01667v15.05l28.30833,-9.31667l2.50833,-41.20833v0z" fill="#ffffff"/><path d="M86,46.58333v14.33333h-31.89167l-1.075,-14.33333zM69.51667,75.25l0.71667,14.33333h15.76667v-14.33333zM70.95,96.75h-14.33333l1.075,19.70833l28.30833,9.31667v-15.05l-14.69167,-5.01667z" fill="#eeeeee"/></g></g></symbol>
<symbol id="logo-firebase" viewBox="0 0 172 172"><g fill="none" fill-rule="nonzero" stroke="none" stroke-width="1" stroke-linecap="butt" stroke-linejoin="miter" stroke-miterlimit="10" stroke-dasharray="" stroke-dashoffset="0" font-family="none" font-weight="none" font-size="none" text-anchor="none" style="mix-blend-mode: normal"><path d="M0,172v-172h172v172z" fill="none"/><g><path d="M28.66667,132.58333l54.5885,-102.35433c1.15025,-2.15717 4.26058,-2.11775 5.3535,0.07167l18.89133,37.78267z" fill="#ff8f00"/><path d="M28.66667,132.55467l19.87317,-122.54642c0.51958,-3.20708 4.82675,-3.90225 6.33175,-1.02125l38.29508,73.401z" fill="#ffa000"/><path d="M28.69533,132.53317l0.71667,-0.56258l62.81225,-51.38858l-17.716,-33.95567z" fill="#ff6f00"/><path d="M28.66667,132.58333l95.55317,-92.13825c2.00308,-1.93142 5.34633,-0.79192 5.75483,1.96008l13.35867,90.17817l-53.75,31.32908c-2.18225,1.2255 -4.84467,1.2255 -7.02692,0z" fill="#ffc400"/></g></g></symbol>
<symbol id="logo-github" viewBox="0 0 172 172"><g fill="none" fill-rule="none" stroke="none" stroke-width="1" stroke-linecap="butt" stroke-linejoin="miter" stroke-miterlimit="10" stroke-dasharray="" stroke-dashoffset="0" font-family="none" font-weight="none" font-size="none" text-anchor="none" style="mix-blend-mode: normal"><path d="M0,172v-172h172v172z" fill="none" fill-rule="nonzero"/><g fill="#666666" fill-rule="evenodd"><path d="M86,21.5c-35.63037,0 -64.5,28.86963 -64.5,64.5c0,28.4917 18.47656,52.6792 44.11279,61.20361c3.2334,0.58789 4.40918,-1.38574 4.40918,-3.10742c0,-1.53271 -0.06299,-5.58496 -0.08398,-10.95996c-17.95166,3.88428 -21.73096,-8.65039 -21.73096,-8.65039c-2.93945,-7.45361 -7.15967,-9.44824 -7.15967,-9.44824c-5.85791,-3.98926 0.44092,-3.90528 0.44092,-3.90528c6.4668,0.46192 9.86817,6.63477 9.86817,6.63477c5.75293,9.86817 15.09619,7.0127 18.77051,5.375c0.58789,-4.17822 2.26758,-7.01269 4.09424,-8.62939c-14.31934,-1.6167 -29.37354,-7.15967 -29.37354,-31.87207c0,-7.05469 2.51953,-12.80761 6.63477,-17.32178c-0.65088,-1.6167 -2.87646,-8.18848 0.62989,-17.06982c0,0 5.41699,-1.72168 17.7417,6.61377c5.14404,-1.42773 10.66602,-2.1416 16.14599,-2.16259c5.47998,0.02099 11.00195,0.73486 16.14599,2.16259c12.32471,-8.33545 17.7207,-6.61377 17.7207,-6.61377c3.52734,8.88134 1.32276,15.45313 0.65088,17.06982c4.13623,4.51416 6.61377,10.26709 6.61377,17.32178c0,24.77539 -15.0752,30.21338 -29.43653,31.83008c2.30957,1.97364 4.36719,5.9209 4.36719,11.92578c0,8.6294 -0.06298,15.5791 -0.06298,17.69971c0,1.72168 1.15478,3.7373 4.43017,3.10742c25.61523,-8.54541 44.0708,-32.71192 44.0708,-61.20361c0,-35.63037 -28.86963,-64.5 -64.5,-64.5z"/></g></g></symbol>
<symbol id="logo-html" viewBox="0 0 172 172"><g fill="none" fill-rule="nonzero" stroke="none" stroke-width="1" stroke-linecap="butt" stroke-linejoin="miter" stroke-miterlimit="10" stroke-dasharray="" stroke-dashoffset="0" font-family="none" font-weight="none" font-size="none" text-anchor="none" style="mix-blend-mode: normal"><path d="M0,172v-172h172v172z" fill="none"/><g><path d="M146.91667,17.91667h-121.83333l10.75,121.83333l50.16667,14.33333l50.16667,-14.33333l10.75,-121.83333z" fill="#e65100"/><path d="M86,28.66667v114.30833l40.13333,-11.46667l8.95833,-102.84167z" fill="#ff6d00"/><path d="M86,89.58333v-14.33333h30.81667l-2.50833,41.20833l-28.30833,9.31667v-15.05l14.69167,-5.01667l1.075,-16.125zM117.89167,60.91667l1.075,-14.33333h-32.96667v14.33333z" fill="#ffffff"/><path d="M86,110.725v15.05l-28.30833,-9.31667l-1.43333,-19.70833h14.33333l0.71667,8.95833zM68.44167,60.91667h17.55833v-14.33333h-32.60833l2.50833,43h30.1v-14.33333h-16.48333z" fill="#eeeeee"/></g></g></symbol>
<symbol id="logo-java" viewBox="0 0 172 172"><g fill="none" fill-rule="nonzero" stroke="none" stroke-width="1" stroke-linecap="butt" stroke-linejoin="miter" stroke-miterlimit="10" stroke-dasharray="" stroke-dashoffset="0" font-family="none" font-weight="none" font-size="none" text-anchor="none" style="mix-blend-mode: normal"><path d="M0,172v-172h172v172z" fill="none"/><g><path d="M84.74583,89.21783c-3.57617,-5.76558 -6.1705,-10.54575 -9.76458,-19.54708c-6.07733,-15.20408 36.96208,-28.94258 19.51125,-55.341c7.56442,18.23558 -27.15092,29.50875 -30.37592,44.69492c-2.94908,13.96783 20.61133,30.19317 20.62925,30.19317z" fill="#f44336"/><path d="M85.56283,61.88417c-0.688,9.01567 7.98725,13.82092 8.23808,20.40708c0.20067,5.36067 -5.18508,9.82908 -5.18508,9.82908c0,0 9.77533,-1.92067 12.82475,-10.09783c3.38625,-9.08017 -6.57183,-15.29725 -5.547,-22.56783c0.95675,-6.9445 21.61108,-19.86242 21.61108,-19.86242c0,0 -30.39025,2.01383 -31.94183,22.29192z" fill="#f44336"/><g fill="#1565c0"><path d="M114.96767,89.78042c6.28517,-1.41183 11.58492,2.59075 11.58492,7.2025c0,10.39525 -14.40858,20.22075 -14.40858,20.22075c0,0 22.30625,-2.65883 22.30625,-19.72625c0,-11.2875 -10.95425,-14.10758 -19.48258,-7.697zM104.37892,98.16542c0,0 6.95525,-4.95575 8.80783,-6.8155c-17.06742,3.62275 -56.03617,4.11008 -56.03617,0.96392c0,-2.89892 12.56675,-5.8695 12.56675,-5.8695c0,0 -27.85325,-0.40133 -27.85325,7.81525c0,8.56417 36.46042,9.17692 62.51483,3.90583z"/><path d="M100.10042,105.96275c-16.15725,5.37142 -45.91683,3.655 -37.10183,-3.55825c-4.29283,0 -10.65683,3.45075 -10.65683,6.76892c0,6.65425 32.1855,11.79275 56.0075,2.04967z"/><path d="M66.95817,117.31475c-5.86233,0 -9.65708,3.77683 -9.65708,6.52883c0,8.56775 34.97333,9.43133 48.83008,0.73458l-8.80783,-5.848c-10.35225,4.55083 -36.3565,5.17792 -30.36517,-1.41542z"/><path d="M130.00692,131.26467c0,-3.354 -3.78042,-4.93425 -5.13492,-5.69033c7.98367,19.25325 -79.96925,17.759 -79.96925,6.39267c0,-2.58358 6.47508,-5.11342 12.45925,-3.91658l-5.08833,-3.00642c-11.92533,-1.8705 -20.02367,3.37192 -20.02367,7.60025c0,19.71908 97.75692,18.7695 97.75692,-1.37958z"/><path d="M139.75,138.331c-14.8565,14.67375 -52.52808,20.02008 -90.41108,10.95425c37.883,16.13575 90.23192,7.04842 90.41108,-10.95425z"/></g></g></g></symbol>
<symbol id="logo-javascript" viewBox="0 0 172 172"><g fill="none" fill-rule="nonzero" stroke="none" stroke-width="1" stroke-linecap="butt" stroke-linejoin="miter" stroke-miterlimit="10" stroke-dasharray="" stroke-dashoffset="0" font-family="none" font-weight="none" font-size="none" text-anchor="none" style="mix-blend-mode: normal"><path d="M0,172v-172h172v172z" fill="none"/><g><path d="M21.5,150.5v-129h129v129z" fill="#ffd600"/><path d="M105.8445,118.06008c2.47967,4.02767 5.17433,7.88692 10.88258,7.88692c4.7945,0 7.31,-2.38292 7.31,-5.67958c0,-3.94525 -2.6015,-5.34633 -7.87617,-7.64325l-2.89175,-1.23267c-8.34558,-3.54033 -13.89617,-7.9765 -13.89617,-17.34692c0,-8.63583 6.61125,-15.20767 16.942,-15.20767c7.35658,0 12.642,2.54775 16.45467,9.21992l-9.0085,5.75842c-1.98158,-3.54033 -4.12442,-4.93425 -7.44617,-4.93425c-3.38983,0 -5.53625,2.13925 -5.53625,4.93425c0,3.45433 2.15,4.85183 7.11292,6.99108l2.89175,1.23267c9.83625,4.18892 15.38325,8.46742 15.38325,18.08508c0,10.363 -8.18433,16.04258 -19.17083,16.04258c-10.74642,0 -16.84883,-5.39292 -20.24583,-12.06867zM64.328,118.35392c1.81317,3.2465 4.56875,5.74408 8.53192,5.74408c3.79117,0 5.97342,-1.49783 5.97342,-7.32075v-37.94392h11.94325v39.77858c0,12.06508 -6.99825,17.55475 -17.21792,17.55475c-9.23425,0 -15.89925,-6.2565 -18.61542,-12.06867z" fill="#000001"/></g></g></symbol>
<symbol id="logo-mysql" viewBox="0 0 172 172"><g fill="none" fill-rule="nonzero" stroke="none" stroke-width="1" stroke-linecap="butt" stroke-linejoin="miter" stroke-miterlimit="10" stroke-dasharray="" stroke-dashoffset="0" font-family="none" font-weight="none" font-size="none" text-anchor="none" style="mix-blend-mode: normal"><path d="M0,172v-172h172v172z" fill="none"/><g><path d="M0.00717,125.56358h6.88v-25.38792l9.55675,21.70425c1.17892,2.70542 2.79142,3.66217 5.9555,3.66217c3.16408,0 4.71208,-0.95675 5.891,-3.66217l9.55675,-21.14883v24.8325h6.88v-26.00783c0,-2.49758 -0.99258,-3.70875 -3.04225,-4.33225c-4.89842,-1.54083 -8.18792,-0.21142 -9.675,3.12467l-9.80042,22.07333l-9.49225,-22.07333c-1.42617,-3.3325 -4.773,-4.6655 -9.675,-3.12467c-2.04967,0.6235 -3.04225,1.83108 -3.04225,4.32867v26.00783h0.00717z" fill="#00796b"/><path d="M48.16358,104.92358h6.88v14.53042c-0.05375,0.71667 0.22933,2.61942 3.5475,2.66958c1.69133,0.02867 10.10858,0 10.2125,0v-17.2h6.88c0.02867,0 0,21.38533 0,21.47492c0.03583,5.27467 -6.55033,5.9555 -9.57825,6.04508h-17.93817v-3.44c0.03583,0 17.15342,0.00358 17.20358,0c3.89867,-0.41208 3.43642,-2.5585 3.43642,-3.21067v-0.22933h-10.793c-5.98417,-0.05375 -9.80042,-2.69108 -9.84342,-5.6975c-0.00717,-0.2795 0.129,-14.8135 -0.00717,-14.9425z" fill="#00796b"/><path d="M79.12358,125.56358h17.22508c2.2575,0 4.4505,-0.473 6.192,-1.29c2.9025,-1.333 4.09933,-3.13542 4.09933,-5.504v-4.902c0,-5.289 -6.5575,-5.504 -10.32,-5.504h-6.88c-2.70542,0 -3.1175,-1.634 -3.44,-3.44v-3.44c0.3225,-1.376 0.9245,-3.225 3.30742,-3.44c2.76992,0 17.329,0 17.329,0v-3.44h-16.3615c-2.70542,0 -11.1585,0.3225 -11.1585,6.88v4.25342c0,3.01 2.6445,5.461 8.385,6.063c0.645,0.043 1.29,0.086 1.93142,0.086c0,0 6.6865,-0.129 6.88,-0.086c3.87,0 3.44,3.01 3.44,3.44v3.44c0,0.473 -0.1075,3.44 -3.47942,3.44c-0.258,0 -17.16058,0 -17.16058,0v3.44358z" fill="#f57f17"/><path d="M144.48,118.53667c0,4.15308 2.34708,6.48225 8.57133,6.94808c0.5805,0.03942 1.16458,0.07525 1.74867,0.07525h17.2v-3.44h-15.89208c-3.55108,0 -4.74792,-1.49067 -4.74792,-3.62275v-23.89725h-6.88z" fill="#f57f17"/><path d="M110.02267,118.68358v-17.2c0,-3.655 1.79167,-6.17767 6.86567,-6.88h2.408h12.35175h1.88125c5.074,0.70233 7.45333,3.22142 7.45333,6.88v17.1355c0,2.96342 -0.77042,4.55442 -3.28233,5.58642l5.332,4.7945h-7.74l-3.83417,-3.44h-4.50425l-7.654,0.043c-1.10725,0 -2.27542,-0.15408 -3.55825,-0.50525c-3.8485,-1.04992 -5.719,-3.07092 -5.719,-6.41417zM116.90267,118.68358c0.35117,1.67342 1.69492,3.44 4.085,3.44h6.67933l-3.827,-3.44h7.79375l1.85975,1.72717c0,0 0.6665,-0.54467 0.6665,-1.72717c0,-1.1825 -0.05733,-17.2 -0.05733,-17.2c-0.35117,-1.55517 -1.92783,-3.44 -4.257,-3.44h-8.85442c-2.68392,0 -4.085,1.96367 -4.085,3.79117l-0.00358,16.84883z" fill="#f57f17"/><path d="M165.54642,90.97725c-3.69442,-0.10033 -6.5145,0.24367 -8.92608,1.25775c-0.68442,0.29025 -1.77733,0.29742 -1.892,1.15742c0.37625,0.39417 0.43358,0.98542 0.73458,1.46917c0.57333,0.93167 1.548,2.18225 2.41517,2.83442c0.94958,0.71667 1.92783,1.4835 2.94192,2.10342c1.806,1.10008 3.82342,1.73075 5.56492,2.83442c1.02483,0.64858 2.0425,1.47275 3.04583,2.20375c0.4945,0.3655 0.82417,0.92808 1.46917,1.15742c0,-0.03583 0,-0.06808 0,-0.10392c-0.33683,-0.43 -0.42642,-1.02125 -0.73458,-1.47275c-0.45508,-0.45508 -0.91017,-0.91017 -1.36525,-1.36525c-1.333,-1.77017 -3.0315,-3.32892 -4.83033,-4.61892c-1.43692,-1.032 -4.65117,-2.42592 -5.25317,-4.09575c-0.03583,-0.03583 -0.06808,-0.06808 -0.1075,-0.1075c1.01767,-0.11467 2.21092,-0.48375 3.14975,-0.73458c1.58025,-0.42283 2.9885,-0.31175 4.61892,-0.73458c0.73458,-0.21142 1.46917,-0.41925 2.20375,-0.63067c0,-0.13975 0,-0.2795 0,-0.41925c-0.82417,-0.84567 -1.41542,-1.96367 -2.31125,-2.7305c-2.35425,-2.00308 -4.91992,-4.00258 -7.56083,-5.67242c-1.46558,-0.9245 -3.27875,-1.5265 -4.83033,-2.31125c-0.52317,-0.26517 -1.4405,-0.40133 -1.7845,-0.8385c-0.817,-1.03917 -1.25775,-2.36142 -1.88842,-3.569c-1.31867,-2.537 -2.61583,-5.3105 -3.78042,-7.98008c-0.79908,-1.82033 -1.31867,-3.61917 -2.31125,-5.25317c-4.76942,-7.84033 -9.90433,-12.57392 -17.85217,-17.22508c-1.69133,-0.989 -3.73025,-1.37958 -5.88383,-1.892c-1.15742,-0.06808 -2.31125,-0.13975 -3.46867,-0.21142c-0.70592,-0.29742 -1.43692,-1.15742 -2.10342,-1.57667c-2.63375,-1.66625 -9.39192,-5.28542 -11.34125,-0.52675c-1.23267,3.00283 1.84183,5.934 2.94192,7.45692c0.77042,1.06783 1.75942,2.26467 2.31125,3.46867c0.36192,0.78833 0.42642,1.58025 0.73458,2.41517c0.76325,2.05683 1.97083,4.40033 2.95983,6.30308c0.49808,0.96392 1.04992,1.97442 1.68058,2.83442c0.387,0.52675 1.04992,0.75967 1.15742,1.57667c-0.64858,0.90658 -0.68442,2.31483 -1.04992,3.46867c-1.64117,5.17792 -1.02125,11.61 1.36525,15.437c0.731,1.17533 2.45817,3.698 4.83033,2.7305c2.07475,-0.84567 1.6125,-3.46508 2.20375,-5.77633c0.13258,-0.52317 0.05017,-0.90658 0.31533,-1.25775c0,0.03583 0,0.06808 0,0.1075c0.63067,1.25775 1.25775,2.52267 1.892,3.78042c1.40108,2.25392 3.88433,4.60817 5.98417,6.19917c1.08933,0.82417 1.94933,2.25033 3.36117,2.7305c0,-0.03583 0,-0.06808 0,-0.1075c-0.03583,0 -0.06808,0 -0.1075,0c-0.27233,-0.42642 -0.70233,-0.602 -1.04992,-0.946c-0.82058,-0.80625 -1.73792,-1.806 -2.41517,-2.7305c-1.9135,-2.59792 -3.60483,-5.44308 -5.14567,-8.40292c-0.73458,-1.41542 -1.376,-2.97058 -1.99592,-4.41108c-0.24008,-0.55542 -0.2365,-1.39392 -0.73458,-1.68058c-0.68083,1.0535 -1.677,1.90633 -2.20375,3.14975c-0.8385,1.98875 -0.94958,4.41825 -1.25775,6.93017c-0.18633,0.0645 -0.10392,0.0215 -0.21142,0.10392c-1.462,-0.35475 -1.978,-1.85617 -2.52267,-3.14975c-1.376,-3.268 -1.63042,-8.52833 -0.41925,-12.28725c0.31175,-0.97467 1.72717,-4.03842 1.15742,-4.93783c-0.27233,-0.89942 -1.17533,-1.419 -1.677,-2.10342c-0.62708,-0.84567 -1.247,-1.96367 -1.68058,-2.94192c-1.12517,-2.54775 -2.193,-5.51117 -3.37908,-8.08758c-0.56617,-1.23267 -1.52292,-2.47608 -2.31125,-3.569c-0.87075,-1.21117 -1.849,-2.10342 -2.52267,-3.569c-0.24008,-0.51958 -0.56617,-1.3545 -0.21142,-1.892c0.11467,-0.36192 0.27233,-0.51242 0.63067,-0.63067c0.60917,-0.473 2.30408,0.15408 2.94192,0.41925c1.68417,0.69875 3.08883,1.36525 4.515,2.31125c0.68442,0.45508 1.376,1.333 2.20375,1.57667c0.31533,0 0.63067,0 0.946,0c1.47992,0.34042 3.13542,0.1075 4.515,0.52675c2.44383,0.74175 4.62967,1.89558 6.61483,3.14975c6.05583,3.82342 11.00442,9.26292 14.39067,15.75592c0.54467,1.04633 0.78117,2.0425 1.25775,3.14975c0.9675,2.236 2.18942,4.5365 3.14975,6.72233c0.96033,2.18225 1.89917,4.38242 3.25725,6.19917c0.71667,0.95317 3.47583,1.46558 4.72642,1.99592c0.87792,0.37267 2.31842,0.75608 3.14975,1.25775c1.591,0.96033 3.13183,2.10342 4.61892,3.14975c0.75967,0.52675 3.04942,1.677 3.16408,2.62658z" fill="#00796b"/><path d="M118.60117,50.96575c-0.77042,-0.01433 -1.31508,0.08242 -1.892,0.21142c0,0.03583 0,0.06808 0,0.1075c0.03583,0 0.06808,0 0.1075,0c0.36908,0.7525 1.01408,1.24342 1.46917,1.892c0.35117,0.73458 0.69875,1.46917 1.04992,2.20375c0.03583,-0.03583 0.06808,-0.06808 0.10392,-0.10392c0.64858,-0.45867 0.94958,-1.18967 0.946,-2.31125c-0.26158,-0.27592 -0.301,-0.61992 -0.52675,-0.946c-0.301,-0.44075 -0.8815,-0.688 -1.25775,-1.0535z" fill="#00796b"/></g></g></symbol>
<symbol id="logo-php" viewBox="0 0 256 135" preserveAspectRatio="xMidYMid meet"><ellipse fill="url(#IconifyId-176d4034ff9-caad16-6503)" cx="128" cy="67.3" rx="128" ry="67.3"/><ellipse fill="#6181B6" cx="128" cy="67.3" rx="123" ry="62.3"/><g fill="#FFF"><path d="M152.9 87.5l6.1-31.4c1.4-7.1.2-12.4-3.4-15.7c-3.5-3.2-9.5-4.8-18.3-4.8h-10.6l3-15.6c.1-.6 0-1.2-.4-1.7s-.9-.7-1.5-.7h-14.6c-1 0-1.8.7-2 1.6l-6.5 33.3c-.6-3.8-2-7-4.4-9.6c-4.3-4.9-11-7.4-20.1-7.4H52.1c-1 0-1.8.7-2 1.6L37 104.7c-.1.6 0 1.2.4 1.7s.9.7 1.5.7h14.7c1 0 1.8-.7 2-1.6l3.2-16.3h10.9c5.7 0 10.6-.6 14.3-1.8c3.9-1.3 7.4-3.4 10.5-6.3c2.5-2.3 4.6-4.9 6.2-7.7l-2.6 13.5c-.1.6 0 1.2.4 1.7s.9.7 1.5.7h14.6c1 0 1.8-.7 2-1.6l7.2-37h10c4.3 0 5.5.8 5.9 1.2c.3.3.9 1.5.2 5.2L134.1 87c-.1.6 0 1.2.4 1.7s.9.7 1.5.7h15c.9-.3 1.7-1 1.9-1.9zm-67.6-26c-.9 4.7-2.6 8.1-5.1 10c-2.5 1.9-6.6 2.9-12 2.9h-6.5l4.7-24.2h8.4c6.2 0 8.7 1.3 9.7 2.4c1.3 1.6 1.6 4.7.8 8.9z"/><path d="M215.3 42.9c-4.3-4.9-11-7.4-20.1-7.4h-28.3c-1 0-1.8.7-2 1.6l-13.1 67.5c-.1.6 0 1.2.4 1.7s.9.7 1.5.7h14.7c1 0 1.8-.7 2-1.6l3.2-16.3h10.9c5.7 0 10.6-.6 14.3-1.8c3.9-1.3 7.4-3.4 10.5-6.3c2.6-2.4 4.8-5.1 6.4-8c1.6-2.9 2.8-6.1 3.5-9.6c1.7-8.7.4-15.5-3.9-20.5zM200 61.5c-.9 4.7-2.6 8.1-5.1 10c-2.5 1.9-6.6 2.9-12 2.9h-6.5l4.7-24.2h8.4c6.2 0 8.7 1.3 9.7 2.4c1.4 1.6 1.7 4.7.8 8.9z"/></g><g fill="#000004"><path d="M74.8 48.2c5.6 0 9.3 1 11.2 3.1c1.9 2.1 2.3 5.6 1.3 10.6c-1 5.2-3 9-5.9 11.2c-2.9 2.2-7.3 3.3-13.2 3.3h-8.9l5.5-28.2h10zM39 105h14.7l3.5-17.9h12.6c5.6 0 10.1-.6 13.7-1.8c3.6-1.2 6.8-3.1 9.8-5.9c2.5-2.3 4.5-4.8 6-7.5s2.6-5.7 3.2-9c1.6-8 .4-14.2-3.5-18.7s-10.1-6.7-18.6-6.7H52.1L39 105z"/><path d="M113.3 19.6h14.6l-3.5 17.9h13c8.2 0 13.8 1.4 16.9 4.3c3.1 2.9 4 7.5 2.8 13.9L151 87.1h-14.8l5.8-29.9c.7-3.4.4-5.7-.7-6.9c-1.1-1.2-3.6-1.9-7.3-1.9h-11.7l-7.5 38.7h-14.6l13.1-67.5z"/><path d="M189.5 48.2c5.6 0 9.3 1 11.2 3.1c1.9 2.1 2.3 5.6 1.3 10.6c-1 5.2-3 9-5.9 11.2c-2.9 2.2-7.3 3.3-13.2 3.3H174l5.5-28.2h10zM153.7 105h14.7l3.5-17.9h12.6c5.6 0 10.1-.6 13.7-1.8c3.6-1.2 6.8-3.1 9.8-5.9c2.5-2.3 4.5-4.8 6-7.5s2.6-5.7 3.2-9c1.6-8 .4-14.2-3.5-18.7s-10.1-6.7-18.6-6.7h-28.3L153.7 105z"/></g> <rect x="0" y="0" width="256" height="135" fill="rgba(0, 0, 0, 0)"/></symbol>
<symbol id="logo-sass" viewBox="0 0 172 172"><g fill="none" fill-rule="none" stroke="none" stroke-width="1" stroke-linecap="butt" stroke-linejoin="miter" stroke-miterlimit="10" stroke-dasharray="" stroke-dashoffset="0" font-family="none" font-weight="none" font-size="none" text-anchor="none" style="mix-blend-mode: normal"><path d="M0,172v-172h172v172z" fill="none" fill-rule="nonzero"/><g><path d="M86.1505,14.448c39.49908,0 71.51617,32.01708 71.51617,71.51617c0,39.4955 -32.01708,71.51617 -71.51617,71.51617c-39.4955,0 -71.51617,-32.01708 -71.51617,-71.51617c0.00358,-39.49908 32.02067,-71.51617 71.51617,-71.51617z" fill="#f06292" fill-rule="evenodd"/><path d="M131.01025,45.05683c-3.23933,-12.70292 -24.29858,-16.8775 -44.22908,-9.79683c-11.86083,4.214 -24.7035,10.82883 -33.93775,19.46467c-10.97933,10.26983 -12.728,19.20667 -12.00775,22.9405c2.54417,13.17592 20.60058,21.79025 28.02167,28.18292v0.03942c-2.18942,1.07858 -18.20692,9.18408 -21.95508,17.47233c-3.956,8.74333 0.63067,15.01775 3.66575,15.86342c9.40625,2.61583 19.05617,-2.08908 24.24483,-9.8255c5.00592,-7.46767 4.59025,-17.10683 2.41517,-21.90492c2.99925,-0.79192 6.50017,-1.14667 10.9435,-0.62708c12.54525,1.46558 15.007,9.29875 14.534,12.5775c-0.46942,3.27875 -3.10317,5.08117 -3.98108,5.62583c-0.8815,0.54467 -1.14667,0.73458 -1.075,1.13592c0.1075,0.58767 0.51242,0.56617 1.26492,0.44075c1.032,-0.17558 6.58617,-2.666 6.82625,-8.71825c0.301,-7.68267 -7.05917,-16.2755 -20.09533,-16.05333c-5.36783,0.09317 -8.74333,0.602 -11.18358,1.51217c-0.17917,-0.20425 -0.3655,-0.4085 -0.55183,-0.61275c-8.05892,-8.6 -22.95842,-14.68092 -22.32775,-26.24075c0.22933,-4.20325 1.69133,-15.26858 28.62725,-28.69175c22.06617,-10.99725 39.732,-7.96933 42.785,-1.26492c4.36092,9.58183 -9.44208,27.38742 -32.3575,29.95667c-8.73258,0.97825 -13.33,-2.40442 -14.47308,-3.66575c-1.204,-1.32583 -1.38317,-1.38675 -1.83108,-1.13592c-0.731,0.40492 -0.26875,1.57667 0,2.27542c0.68442,1.78092 3.49375,4.93783 8.2775,6.51092c4.21042,1.38317 14.46233,2.13925 26.86067,-2.65525c13.88183,-5.375 24.725,-20.3175 21.53942,-32.80542zM71.939,109.78617c1.03917,3.8485 0.9245,7.439 -0.14692,10.68908c-0.11825,0.36192 -0.25083,0.71667 -0.39417,1.07142c-0.14333,0.35117 -0.29742,0.70233 -0.46225,1.04633c-0.82775,1.72 -1.94217,3.32892 -3.30383,4.816c-4.15667,4.53292 -9.96167,6.24575 -12.4485,4.80167c-2.6875,-1.55875 -1.34017,-7.94783 3.47583,-13.04333c5.1815,-5.47892 12.63842,-9.00133 12.63842,-9.00133l-0.01075,-0.0215c0.215,-0.11825 0.43358,-0.2365 0.65217,-0.35833z" fill="#ffffff" fill-rule="nonzero"/></g></g></symbol>
<symbol id="logo-sql" viewBox="0 0 172 172"> <g fill="none" fill-rule="nonzero" stroke="none" stroke-width="1" stroke-linecap="butt" stroke-linejoin="miter" stroke-miterlimit="10" stroke-dasharray="" stroke-dashoffset="0" font-family="none" font-weight="none" font-size="none" text-anchor="none" style="mix-blend-mode: normal"><path d="M0,172v-172h172v172z" fill="none"/><g><path d="M82.71767,40.40925c-5.85158,-8.77558 -7.1165,-20.50383 -7.39242,-25.32342c-14.86367,3.21425 -29.63058,8.97983 -28.77775,13.22608c0.1075,0.53392 0.78117,1.17533 1.89917,1.79883l-1.74867,3.12825c-2.13567,-1.19683 -3.33608,-2.57642 -3.66217,-4.22475c-0.96392,-4.80525 4.47917,-9.15183 16.63383,-13.29058c8.299,-2.82725 16.66967,-4.515 17.02442,-4.58308l2.13925,-0.43v2.18942c0,0.1505 0.09317,15.36533 6.86567,25.52408z" fill="#cfd8dc"/><path d="M88.69108,154.08333h-0.89942c-29.35467,0 -62.02392,-9.21992 -65.88317,-24.64975c-2.35425,-9.42417 5.34633,-19.83733 22.26683,-30.10358l1.86333,3.06017c-15.22558,9.24142 -22.56067,18.533 -20.65075,26.17625c3.35042,13.3945 34.31042,21.74367 61.46492,21.93c3.22858,-4.82675 20.5755,-33.18167 10.67475,-71.21158l3.46508,-0.903c11.28392,43.32967 -11.53117,74.66592 -11.7605,74.97767z" fill="#cfd8dc"/><path d="M35.58608,140.8465c-1.93142,0 -2.88817,-0.21142 -3.04583,-0.25083c-0.63067,-0.15408 -1.12517,-0.63783 -1.29717,-1.26133c-0.17558,-0.6235 0.00358,-1.29358 0.46225,-1.74867c0.258,-0.258 25.78925,-25.82867 29.23642,-46.5045l3.53317,0.58767c-2.96342,17.78767 -20.47875,38.06575 -27.434,45.53342c6.94808,-0.39775 24.49208,-3.65142 58.17183,-22.50333c-26.28375,-2.881 -30.44042,-23.92233 -30.48342,-24.14808l3.52242,-0.64858c0.16842,0.8815 4.39317,21.53942 33.12433,21.53942c0.01075,0 0.01792,0 0.02867,0v0c0.81342,0 1.51933,0.54467 1.72717,1.32583c0.215,0.78117 -0.129,1.60892 -0.82775,2.01742c-40.25875,23.32392 -59.78075,26.058 -66.71808,26.06158z" fill="#cfd8dc"/><path d="M52.04433,149.425c-0.74175,0 -1.41542,-0.45867 -1.677,-1.16458c-0.28308,-0.75608 -0.02508,-1.6125 0.63425,-2.0855c0.12183,-0.08958 6.49658,-4.7945 13.27983,-15.15033c-2.60867,-1.15383 -5.24958,-2.50117 -7.869,-4.07425c-3.182,-1.90992 -5.58642,-3.95958 -7.38167,-6.05942c-9.20917,2.4295 -17.70883,3.38983 -25.17292,2.75558l0.301,-3.569c6.72233,0.56975 14.36558,-0.22575 22.65025,-2.29333c-5.63658,-9.632 -0.46225,-19.19233 -0.39058,-19.32133l3.13183,1.74508c-0.24008,0.43717 -4.53292,8.4925 0.89225,16.60158c7.88692,-2.26467 16.30058,-5.61508 25.00808,-9.96883c2.00308,-6.57542 3.569,-14.05383 4.38958,-22.489c0.05733,-0.57692 0.387,-1.08933 0.88867,-1.37958c0.50167,-0.29025 1.11442,-0.31533 1.64117,-0.07525c0.11467,0.05375 11.696,5.34275 20.081,8.7935c0.60917,0.25083 1.032,0.817 1.10008,1.47275c0.07167,0.65575 -0.22575,1.29358 -0.774,1.66625c-8.20225,5.59 -16.35075,10.43825 -24.28783,14.48383c-2.5155,7.97292 -5.62942,14.60925 -8.81142,20.03442c13.2655,4.95575 24.77875,5.031 24.92567,5.031c0.817,0 1.53008,0.55183 1.73433,1.34375c0.20425,0.79192 -0.1505,1.61967 -0.86358,2.01742c-16.26833,9.03717 -42.16508,11.58133 -43.258,11.68525c-0.05733,-0.00358 -0.11467,0 -0.172,0zM67.75725,132.46508c-3.72667,5.7835 -7.38883,9.93658 -10.1265,12.64917c7.1595,-1.0535 19.71192,-3.36117 30.12867,-7.66475c-4.988,-0.61275 -12.20842,-1.97442 -20.00217,-4.98442zM52.91508,119.79442c1.40825,1.40467 3.16408,2.77708 5.33917,4.085c2.63733,1.58383 5.31408,2.92758 7.955,4.06708c2.70183,-4.52933 5.37858,-9.96525 7.6755,-16.36867c-7.24192,3.44717 -14.27242,6.19917 -20.96967,8.21658zM83.1405,87.17892c-0.73458,6.33533 -1.86692,12.11525 -3.27158,17.37917c5.94833,-3.17125 12.0185,-6.794 18.13883,-10.84317c-5.55058,-2.35067 -11.653,-5.08475 -14.86725,-6.536z" fill="#cfd8dc"/><path d="M64.22767,37.98333c-0.41925,0 -0.83492,-0.1505 -1.16458,-0.43c-5.76917,-4.93783 -12.55958,-14.9855 -12.84625,-15.41192c-0.46225,-0.68442 -0.39058,-1.59817 0.16483,-2.20733c0.55183,-0.61275 1.462,-0.75608 2.17867,-0.3655c0.03942,0.01075 3.36117,1.37958 25.86092,5.12775c0.64858,0.1075 1.1825,0.559 1.3975,1.17533c0.21858,0.61633 0.07883,1.30433 -0.35833,1.79167c-6.2995,6.99825 -14.25808,10.07992 -14.59492,10.20533c-0.20783,0.07525 -0.42642,0.11467 -0.63783,0.11467zM56.06842,24.17317c2.26108,3.04225 5.51833,7.15233 8.49967,9.92225c1.83108,-0.83492 5.93758,-2.93117 9.83267,-6.44283c-9.25575,-1.58025 -14.90308,-2.70542 -18.33233,-3.47942z" fill="#cfd8dc"/><path d="M78.27075,87.43333c-0.24367,0 -0.49092,-0.05017 -0.72025,-0.1505c-0.71308,-0.31533 -1.14308,-1.0535 -1.06067,-1.8275c1.04633,-9.85058 -14.06817,-13.803 -14.22225,-13.83883c-0.6235,-0.15767 -1.118,-0.64142 -1.28642,-1.26133c-0.16842,-0.61992 0.00717,-1.28642 0.46225,-1.7415c0.74175,-0.74175 18.41475,-18.26783 40.58842,-27.89267c0.61992,-0.26875 1.32225,-0.16842 1.84542,0.25083c0.51958,0.42283 0.75967,1.10008 0.6235,1.75225c-4.24983,20.58267 -24.04417,43.15767 -24.88267,44.10725c-0.35475,0.39058 -0.84925,0.602 -1.34733,0.602zM66.13042,69.10458c4.24267,1.59458 11.6745,5.28542 13.55575,12.02567c5.19225,-6.47867 16.2755,-21.40325 20.41425,-35.59683c-15.72008,7.56083 -28.95692,18.963 -33.97,23.57117z" fill="#b71c1c"/><path d="M46.86642,101.62333l-1.70208,-3.15333c6.74742,-3.63708 14.47667,-10.33075 20.80842,-18.11017c-5.38933,3.69083 -8.47458,6.21708 -8.57133,6.2995l-2.28975,-2.75917c0.13975,-0.11467 6.321,-5.18508 16.59442,-11.53833c2.82008,-4.5365 4.988,-9.202 6.10242,-13.674c0.18992,-0.75967 0.35475,-1.49425 0.48733,-2.20375c-6.89792,-2.46175 -13.26192,-3.92017 -17.63358,-4.54725c-0.66292,-0.09317 -1.21475,-0.54825 -1.43692,-1.17533c-0.22217,-0.62708 -0.07525,-1.32942 0.37267,-1.81675c0.30458,-0.32967 7.58233,-8.127 16.67683,-12.40908c0.70592,-0.33325 1.55158,-0.16842 2.08192,0.4085c0.24008,0.26158 5.16,5.78708 3.90942,17.21792c4.13875,1.6125 8.40292,3.57258 12.50942,5.90533c9.88642,-4.44333 21.113,-8.44233 33.07058,-10.8575c0.61633,-0.12183 1.30075,0.10033 1.72358,0.602c0.41925,0.50167 0.53392,1.19325 0.29742,1.80242c-4.65833,11.93967 -17.14983,24.69275 -17.68017,25.23025c-0.36192,0.3655 -0.85642,0.54825 -1.37242,0.53033c-0.51242,-0.02867 -0.98542,-0.27233 -1.30792,-0.67367c-4.01333,-5.04533 -9.25933,-9.2235 -14.91742,-12.62408c-7.79375,3.59767 -14.69525,7.44617 -20.36767,10.92558c-7.23833,11.29825 -18.16392,21.672 -27.35517,26.62058zM98.513,62.33567c4.6225,2.98133 8.92608,6.48583 12.48433,10.56367c2.967,-3.21783 10.08708,-11.352 14.1255,-19.42883c-9.49583,2.18583 -18.48283,5.34992 -26.60983,8.86517zM81.69642,57.7705c-0.11825,0.58408 -0.25442,1.1825 -0.40492,1.79167c-0.7525,3.00642 -1.94933,6.09525 -3.483,9.17692c3.92733,-2.24317 8.27392,-4.558 12.9645,-6.80117c-3.00283,-1.591 -6.06658,-2.97417 -9.07658,-4.16742zM64.672,48.99133c3.98108,0.78117 8.88667,2.05683 14.12192,3.8915c0.54467,-6.60408 -1.23983,-10.64967 -2.31842,-12.44133c-4.93067,2.57283 -9.24858,6.192 -11.8035,8.54983z" fill="#b71c1c"/><path d="M64.67917,66.29167c0,15.695 -13.07917,28.165 -22.50333,37.26667c-1.57667,1.54083 -6.91583,1.79167 -6.91583,1.79167c1.32583,-1.36167 2.83083,-2.795 4.44333,-4.33583c8.95833,-8.67167 21.3925,-20.5325 21.3925,-34.7225c0,-16.80583 -6.7725,-23.435 -12.11167,-28.73833c-2.365,-2.40083 -4.37167,-4.69417 -5.59,-7.48917l1.11083,-0.46583c1.21833,0.5375 2.61583,1.14667 3.69083,1.6125c0.86,1.25417 2.00667,2.4725 3.3325,3.79833c5.4825,5.4825 13.15083,13.0075 13.15083,31.2825z" fill="#b71c1c"/><path d="M153.85042,70.9285c0,0 -2.16792,0.30817 -2.77708,0.37983c-31.39,3.47583 -63.78333,12.50583 -82.30917,19.92333c-6.70083,2.6875 -13.6525,5.94833 -19.995,9.60333c-0.03583,0.03583 -0.07167,0.03583 -0.14333,0.07167c-3.72667,2.15 -12.7925,6.59333 -20.13833,10.49917c10.75,-11.43083 30.88833,-20.24583 38.915,-23.47083c18.1675,-7.27417 49.37833,-16.05333 80.0875,-19.81583c-3.61917,-4.22833 -12.47,-13.18667 -29.885,-19.85167c-10.17667,-3.94167 -25.65667,-6.16333 -39.30917,-8.13417c-21.715,-3.1175 -34.0775,-5.19583 -35.26,-11.10833c-0.25083,-1.1825 -0.07167,-2.365 0.46583,-3.51167c1.1825,1.935 2.86667,3.29667 3.9775,4.085c0.5375,0.35833 0.93167,0.57333 1.075,0.645l0.03583,0.03583c5.08833,2.6875 18.8125,4.65833 30.24333,6.30667c13.83167,2.00667 29.49083,4.26417 40.06167,8.31333c24.6175,9.49583 33.11,23.07667 33.46833,23.65c0.3225,0.5375 1.48708,2.37933 1.48708,2.37933z" fill="#b71c1c"/></g></g> </symbol>
</svg>